0
SECTION
2
HEADER
9
$INSUNITS
70
4
9
$ACADVER
1
AC1014
9
$HANDSEED
5
FFFF
0
ENDSEC
0
SECTION
2
TABLES
0
TABLE
2
VPORT
5
8
100
AcDbSymbolTable
0
ENDTAB
0
TABLE
2
LTYPE
5
5
100
AcDbSymbolTable
0
LTYPE
5
14
100
AcDbSymbolTableRecord
100
AcDbLinetypeTableRecord
2
BYBLOCK
70
0
0
LTYPE
5
15
100
AcDbSymbolTableRecord
100
AcDbLinetypeTableRecord
2
BYLAYER
70
0
0
ENDTAB
0
TABLE
2
LAYER
5
2
100
AcDbSymbolTable
70
2
0
LAYER
5
50
100
AcDbSymbolTableRecord
100
AcDbLayerTableRecord
2
0
70
0
6
CONTINUOUS
0
ENDTAB
0
TABLE
2
STYLE
5
3
100
AcDbSymbolTable
70
1
0
STYLE
5
11
100
AcDbSymbolTableRecord
100
AcDbTextStyleTableRecord
2
STANDARD
70
0
0
ENDTAB
0
TABLE
2
VIEW
5
6
100
AcDbSymbolTable
70
0
0
ENDTAB
0
TABLE
2
UCS
5
7
100
AcDbSymbolTable
70
0
0
ENDTAB
0
TABLE
2
APPID
5
9
100
AcDbSymbolTable
70
2
0
APPID
5
12
100
AcDbSymbolTableRecord
100
AcDbRegAppTableRecord
2
ACAD
70
0
0
ENDTAB
0
TABLE
2
DIMSTYLE
5
A
100
AcDbSymbolTable
70
1
0
ENDTAB
0
TABLE
2
BLOCK_RECORD
5
1
100
AcDbSymbolTable
70
1
0
BLOCK_RECORD
5
1F
100
AcDbSymbolTableRecord
100
AcDbBlockTableRecord
2
*MODEL_SPACE
0
BLOCK_RECORD
5
1B
100
AcDbSymbolTableRecord
100
AcDbBlockTableRecord
2
*PAPER_SPACE
0
ENDTAB
0
ENDSEC
0
SECTION
2
BLOCKS
0
BLOCK
5
20
100
AcDbEntity
100
AcDbBlockBegin
2
*MODEL_SPACE
0
ENDBLK
5
21
100
AcDbEntity
100
AcDbBlockEnd
0
BLOCK
5
1C
100
AcDbEntity
100
AcDbBlockBegin
2
*PAPER_SPACE
0
ENDBLK
5
1D
100
AcDbEntity
100
AcDbBlockEnd
0
ENDSEC
0
SECTION
2
ENTITIES
0
LWPOLYLINE
5
100
100
AcDbEntity
8
0
100
AcDbPolyline
90
4
70
1
43
0.0
10
65.11858227254578
20
-7.7500000000021174
10
58.618582272545439
20
-7.7500000000021174
42
-0.99999999999999989
10
58.618582272545154
20
-4.7500000000021458
10
65.118582272545495
20
-4.7500000000021458
42
-0.99999999999999989
0
LWPOLYLINE
5
101
100
AcDbEntity
8
0
100
AcDbPolyline
90
8
70
1
43
0.0
10
43.518530570888451
20
-16.250000000002206
10
43.518530570888608
20
-14.250000000002032
42
-0.99999999999999989
10
44.518530570888551
20
-14.250000000002316
10
53.518530570888601
20
-14.250000000002242
42
-0.99999999999999989
10
54.518530570888544
20
-14.250000000002387
10
54.518530570888693
20
-16.250000000002206
42
-0.99999999999999989
10
53.518530570888466
20
-16.250000000002206
10
44.518530570888693
20
-16.250000000002217
42
-0.99999999999999989
0
LWPOLYLINE
5
102
100
AcDbEntity
8
0
100
AcDbPolyline
90
164
70
1
43
0.0
10
75.357605677809545
20
-5.9596684684154475
42
-0.033946451557166413
10
73.858044218195317
20
-16.102039808942418
42
-0.3526519878696136
10
69.949844099983821
20
-19.250000000003734
10
36.924916056032295
20
-19.250000000024322
42
0.56270987786109317
10
34.263099439252365
20
-23.633738522514864
10
40.774063639517806
20
-36.158498379850172
42
0.035936296596771021
10
48.292931509731645
20
-48.388002099113336
10
59.522541409961143
20
-64.015657928604497
42
0.026499738706028002
10
60.18534536469037
20
-64.841909940213114
42
0.14498302280177
10
73.735628435545777
20
-73.220297562882365
42
-0.023924779286598273
10
75.229145792567422
20
-73.730108200019785
42
-0.35163889639391999
10
78.017010119425152
20
-78.624830122729577
10
77.683520060107696
20
-80.710847655188729
42
0.11737104688026363
10
77.787822083334788
20
-82.096240343918794
42
0.28190029638586805
10
80.591949627069326
20
-84.518381383354765
10
87.289524815951609
20
-85.618688722534358
42
-0.35195103835882707
10
91.086098443785914
20
-89.785276631607971
42
-0.10777563399006747
10
89.963408303163959
20
-96.726587258512467
42
-0.35293001930682016
10
85.065920309387053
20
-99.542053280599291
10
75.639647001933525
20
-97.99513862414328
42
0.41441347880152152
10
74.405266030846519
20
-98.882131332762683
10
72.864785251816002
20
-108.30945822805013
42
-0.35293001930681517
10
68.634276108835834
20
-112.05312353919597
42
-0.10777563399007355
10
61.697428700783519
20
-110.90317814552579
42
-0.35195103835882763
10
58.959420805068952
20
-105.97593359318108
10
60.052838223910854
20
-99.277230136574147
42
0.28190029638587849
10
58.651612046678814
20
-95.847002200023965
42
0.11737104688023078
10
57.371848722128824
20
-95.306264142205094
10
55.288417443160718
20
-94.956980774141556
42
-0.35163889639393314
10
51.538569909146474
20
-90.753513910079491
42
-0.023924779286609611
10
51.531758756800699
20
-89.175396490599212
42
0.14498302280177255
10
47.912976570293431
20
-73.660501520196718
42
0.026499738706022753
10
47.341288506584078
20
-72.768776098945992
10
36.111239579835406
20
-57.14050929940305
42
0.035932549400233292
10
26.919753774703103
20
-46.114727839195815
10
12.960851606312902
20
-31.625281159445983
42
0.42517952708884943
10
-12.965220471943756
20
-31.625281159446025
10
-26.925834637437237
20
-46.116504905217603
42
0.035932549400233313
10
-36.117320442569479
20
-57.142286365424873
10
-47.34736936931823
20
-72.770553164967765
42
0.026499738706019075
10
-47.919057433027589
20
-73.662278586218534
42
0.14498302280177233
10
-51.537839619534793
20
-89.177173556621057
42
-0.023924779286609348
10
-51.544650771880598
20
-90.755290976101307
42
-0.35163889639393364
10
-55.294498305894862
20
-94.958757840163372
10
-57.377929584862962
20
-95.308041208226911
42
0.11737104688022441
10
-58.657692909412916
20
-95.848779266045824
42
0.2819002963858786
10
-60.058919086644934
20
-99.279007202595977
10
-58.965501667803082
20
-105.97771065920291
42
-0.35195103835882569
10
-61.703509563517699
20
-110.90495521154756
42
-0.10777563399007596
10
-68.640356971570014
20
-112.05490060521781
42
-0.35293001930681095
10
-72.870866114550111
20
-108.31123529407191
10
-74.411346893580614
20
-98.883908398784513
42
0.41441347880153906
10
-75.645727864667634
20
-97.996915690165167
10
-85.072001172121233
20
-99.543830346621164
42
-0.35293001930682344
10
-89.969489165898139
20
-96.728364324534397
42
-0.10777563399006899
10
-91.09217930652008
20
-89.787053697629801
42
-0.35195103835882741
10
-87.295605678685732
20
-85.620465788556174
10
-80.598030489803449
20
-84.520158449376609
42
0.2819002963858615
10
-77.793902946068968
20
-82.098017409940596
42
0.11737104688026347
10
-77.689600922841876
20
-80.712624721210517
10
-78.023090982159374
20
-78.626607188751379
42
-0.35163889639392204
10
-75.235226655301574
20
-73.731885266041544
42
-0.023924779286615124
10
-73.741709298279929
20
-73.222074628904068
42
0.14498302280176983
10
-60.191426227424557
20
-64.843687006234958
42
0.026499738706029851
10
-59.528622272695287
20
-64.017434994626285
10
-48.299012372465796
20
-48.389779165135174
42
0.035936296596771597
10
-40.780144502251957
20
-36.16027544587196
10
-34.268256498785547
20
-23.633738522515166
42
0.56270987786107962
10
-36.930073115565335
20
-19.250000000024627
10
-70.560347595575053
20
-19.250000000002107
42
-0.41708396926027286
10
-74.560155900016142
20
-15.210839717505849
10
-74.560155900016127
20
-12.50727450069583
42
-0.21531309579454835
10
-74.052043137893548
20
-11.382036878086346
42
0.3086152858774972
10
-73.634391444592325
20
-9.7437690404883046
10
-74.240526790181463
20
-8.0784258653489651
42
-0.087488663525898513
10
-74.560155900016142
20
-6.2657191057228108
10
-74.560155900016127
20
-6.2500000000019194
42
-0.4142135623730947
10
-71.560155900016156
20
-3.2500000000019469
10
-65.309156116160096
20
-3.250000000002089
42
0.99999999999999989
10
-65.309156116160096
20
3.2499999999971152
10
-71.560155900016156
20
3.2499999999981135
42
-0.4142135623730947
10
-74.560155900016127
20
6.2499999999980815
10
-74.560155900016127
20
6.2657191057191151
42
-0.087488663525898736
10
-74.240526790181463
20
8.078425865345265
10
-73.634391444592353
20
9.7437690404846204
42
0.30861528587751075
10
-74.052043137893563
20
11.382036878082562
42
-0.21531309579460003
10
-74.560155900016113
20
12.507274500692064
10
-74.560155900016127
20
15.210839717481621
42
-0.41708396926167585
10
-70.560347595575053
20
19.249999999997168
10
-36.933337519653676
20
19.250000000019515
42
0.56271480522669848
10
-34.271541616985452
20
23.633778368302558
10
-40.779422520598985
20
36.152149172001202
42
0.035932549400233091
10
-48.297599920424723
20
48.38032469817616
10
-59.527648847173758
20
64.008591497718783
42
0.02649973870601852
10
-60.190452801903007
20
64.834843509327726
42
0.14498302280177244
10
-73.740735872758592
20
73.21323113199638
42
-0.023924779286608792
10
-75.23425322978008
20
73.723041769134085
42
-0.35163889639393431
10
-78.022117556637937
20
78.617763691843791
10
-77.688627497320638
20
80.703781224302446
42
0.11737104688022554
10
-77.792929520547773
20
82.089173913032866
42
0.28190029638587888
10
-80.597057064282112
20
84.511314952468851
10
-87.29463225316448
20
85.611622291648203
42
-0.35195103835882752
10
-91.091205880998828
20
89.778210200721858
42
-0.10777563399007697
10
-89.96851574037693
20
96.719520827626312
42
-0.35293001930681273
10
-85.071027746600095
20
99.534986849713349
10
-75.644754439146453
20
97.988072193257466
42
0.41441347880155976
10
-74.410373468059674
20
98.875064901876982
10
-72.869892689029172
20
108.30239179716426
42
-0.3529300193068256
10
-68.639383546049402
20
112.04605710831029
42
-0.10777563399006967
10
-61.702536137996859
20
110.89611171464014
42
-0.35195103835882624
10
-58.96452824228227
20
105.96886716229547
10
-60.057945661123917
20
99.270163705688589
42
0.28190029638587072
10
-58.656719483891976
20
95.839935769138208
42
0.11737104688026077
10
-57.376956159342321
20
95.29919771131955
10
-55.293524880373717
20
94.949914343256054
42
-0.35163889639392093
10
-51.543677346359232
20
90.746447479194003
42
-0.023924779286615124
10
-51.536866194013797
20
89.168330059713696
42
0.14498302280176983
10
-47.918084007506081
20
73.653435089311273
42
0.026499738706030628
10
-47.346395943796971
20
72.76170966806059
10
-36.11678604356711
20
57.134053838569741
42
0.035936296596771375
10
-26.924261650941617
20
46.107194332790741
10
-12.966962523845108
20
31.619845665639453
42
0.42517068931740531
10
12.958735662915551
20
31.619845665639446
10
26.924222243547511
20
46.115692717254923
42
0.035936296596771403
10
36.116746636173062
20
57.142552223033967
10
47.346356536402929
20
72.770208052524694
42
0.026499738706029053
10
47.918044600111983
20
73.661933473775349
42
0.14498302280176989
10
51.536826786619834
20
89.176828444177815
42
-0.023924779286597402
10
51.543637938965233
20
90.754945863658051
42
-0.35163889639392265
10
55.293485472979697
20
94.958412727720088
10
57.376916751948301
20
95.307696095783598
42
0.11737104688025851
10
58.656680076497985
20
95.848434153602184
42
0.28190029638586883
10
60.057906253729939
20
99.278662090152622
10
58.9644888348883
20
105.9773655467595
42
-0.35195103835883174
10
61.702496730602867
20
110.90461009910413
42
-0.10777563399006747
10
68.639344138655275
20
112.05455549277428
42
-0.35293001930681756
10
72.869853281635187
20
108.31089018162828
10
74.410334060665534
20
98.883563286341044
42
0.41441347880152385
10
75.644715031752384
20
97.996570577721499
10
85.070988339206068
20
99.543485234177368
42
-0.352930019306817
10
89.968476332982902
20
96.728019212090274
42
-0.10777563399007367
10
91.091166473604773
20
89.786708585185892
42
-0.35195103835882968
10
87.294592845770381
20
85.620120676112279
10
80.59701765688807
20
84.519813336932899
42
0.28190029638587749
10
77.792890113153717
20
82.097672297496942
42
0.11737104688022723
10
77.688588089926526
20
80.712279608766551
10
78.022078149243853
20
78.626262076307839
42
-0.35163889639393586
10
75.234213822385968
20
73.731540153598232
42
-0.023924779286608449
10
73.740696465364493
20
73.221729516460499
42
0.1449830228017725
10
60.190413394508923
20
64.843341893791845
42
0.026499738706022489
10
59.527609439779695
20
64.017089882182901
10
48.297560513030589
20
48.388823082640364
42
0.035932549400233875
10
40.779383113204837
20
36.160647556465349
10
34.267084184687455
20
23.633778368302391
42
0.56271480522671358
10
36.928880087355786
20
19.250000000019362
10
69.949844099983821
20
19.249999999998707
42
-0.35265198786916152
10
73.858044218193626
20
16.102039808943985
42
-0.033946451557218434
10
75.357605677809687
20
5.9596684684070045
42
-0.41177131069534789
10
74.447874058673577
20
4.8846347715937988
10
73.745035473036623
20
4.8231443630619673
42
0.40385955955197839
10
72.833531848957094
20
3.7751860769416945
42
-0.025899154646982885
10
72.833531848957165
20
-3.7751860769462904
42
0.4038595595520576
10
73.745035473036623
20
-4.8231443630672164
10
74.447874058673577
20
-4.8846347715987548
42
-0.41177131069519635
0
LWPOLYLINE
5
103
100
AcDbEntity
8
0
100
AcDbPolyline
90
4
70
1
43
0.0
10
65.118582272545495
20
-1.5000000000028992
10
56.200000016387435
20
-1.5000000000028995
42
-0.99999999999999989
10
56.200000016387435
20
1.4999999999970726
10
65.118582272545495
20
1.4999999999970728
42
-0.99999999999999989
0
LWPOLYLINE
5
104
100
AcDbEntity
8
0
100
AcDbPolyline
90
8
70
1
43
0.0
10
37.911521493195686
20
-0.84810821418384696
10
42.158662136348397
20
-3.5013462592245022
42
0.49873989764222082
10
43.649917730777176
20
-2.9282788589474462
10
44.408940035991975
20
-0.2750408139068839
42
0.14022445672346062
10
44.408940035991968
20
0.27504081390297086
10
43.649917730777048
20
2.9282788589437594
42
0.49873989764222004
10
42.158662136348426
20
3.5013462592206865
10
37.911521493195721
20
0.84810821418003013
42
0.55438321313546901
0
CIRCLE
5
105
100
AcDbEntity
8
0
100
AcDbCircle
10
57.059156116189911
20
-10.000000000002556
30
0
40
0.99999999999999645
210
0
220
0
230
1
0
CIRCLE
5
106
100
AcDbEntity
8
0
100
AcDbCircle
10
37.059156116189904
20
-10.000000000002556
30
0
40
1.0000000000000009
210
0
220
0
230
1
0
LWPOLYLINE
5
107
100
AcDbEntity
8
0
100
AcDbPolyline
90
8
70
1
43
0.0
10
-19.219373349977502
20
-0.848108214183938
42
0.55438321313561034
10
-19.219373349977502
20
0.84810821418024318
10
-25.669362919246911
20
4.8774915459700443
42
0.49873989764212551
10
-27.160618513675132
20
4.304424145692777
10
-28.313320145858825
20
0.27504081390311824
42
0.14022445672339848
10
-28.313320145858853
20
-0.27504081390685164
10
-27.160618513675278
20
-4.3044241456966157
42
0.49873989764207016
10
-25.669362919246762
20
-4.8774915459737596
0
LWPOLYLINE
5
108
100
AcDbEntity
8
0
100
AcDbPolyline
90
8
70
1
43
0.0
10
-10.206154140287538
20
0.26641234748538517
42
0.135657563569687
10
-10.206154140287557
20
-0.2664123474891561
10
-9.3577038105205173
20
-3.336039642954844
42
0.50154121987859213
10
-7.8640216173502342
20
-3.9177355096494626
10
-2.9503506143763047
20
-0.84810821418372506
42
0.55438321313537897
10
-2.9503506143763047
20
0.84810821418003002
10
-7.86402161735026
20
3.9177355096456514
42
0.50154121987834543
10
-9.3577038105205528
20
3.3360396429510484
0
LWPOLYLINE
5
109
100
AcDbEntity
8
0
100
AcDbPolyline
90
8
70
1
43
0.0
10
25.669051119213037
20
4.8774915459732791
10
19.219061549943603
20
0.84810821418003024
42
0.55438321313547034
10
19.219061549943568
20
-0.84810821418384696
10
25.669051119213151
20
-4.8774915459770103
42
0.49873989764241672
10
27.160306713641624
20
-4.3044241456999845
10
28.313008345826205
20
-0.27504081390688417
42
0.14022445672345224
10
28.313008345826191
20
0.27504081390297086
10
27.16030671364166
20
4.3044241456962604
42
0.49873989764227644
0
LWPOLYLINE
5
110
100
AcDbEntity
8
0
100
AcDbPolyline
90
8
70
1
43
0.0
10
-71.63466571021246
20
6.6675496399856407
42
-0.41421356237329826
10
-72.275522092268289
20
6.3687134012556514
10
-72.745368402661214
20
6.5397234729184088
42
-0.4142135623731068
10
-73.044204641391474
20
7.1805798549741926
10
-72.189154283077102
20
9.52981140693886
42
-0.41421356237310414
10
-71.5482979010214
20
9.828647645669049
10
-71.078451590628489
20
9.6576375740061575
42
-0.41421356237313151
10
-70.779615351898315
20
9.0167811919504075
0
LWPOLYLINE
5
111
100
AcDbEntity
8
0
100
AcDbPolyline
90
8
70
1
43
0.0
10
-71.5482979010214
20
-9.8286476456728238
42
-0.41421356237305296
10
-72.189154283077073
20
-9.529811406942688
10
-73.044204641391417
20
-7.1805798549777933
42
-0.41421356237313744
10
-72.745368402661242
20
-6.5397234729220122
10
-72.275522092268289
20
-6.3687134012592148
42
-0.41421356237327961
10
-71.634665710212346
20
-6.6675496399892733
10
-70.7796153518983
20
-9.0167811919541663
42
-0.41421356237308682
10
-71.078451590628475
20
-9.6576375740098541
0
LWPOLYLINE
5
112
100
AcDbEntity
8
0
100
AcDbPolyline
90
8
70
1
43
0.0
10
-37.911833293229478
20
-0.84810821418408233
42
0.55438321313562167
10
-37.911833293229449
20
0.8481082141802232
10
-42.158973936381862
20
3.5013462592184688
42
0.49873989764212368
10
-43.650229530810087
20
2.9282788589411974
10
-44.409251836024602
20
0.27504081390311758
42
0.14022445672339767
10
-44.40925183602463
20
-0.27504081390685164
10
-43.65022953081025
20
-2.9282788589450384
42
0.49873989764202603
10
-42.158973936381855
20
-3.5013462592222644
0
LWPOLYLINE
5
113
100
AcDbEntity
8
0
100
AcDbPolyline
90
8
70
1
43
0.0
10
10.205842340255044
20
0.26641234748538023
10
9.3573920104880397
20
3.3360396429510786
42
0.50154121987847666
10
7.8637098173177513
20
3.9177355096458477
10
2.9500388143438272
20
0.84810821417995907
42
0.55438321313537897
10
2.9500388143438272
20
-0.84810821418379645
10
7.8637098173177833
20
-3.9177355096494901
42
0.50154121987835631
10
9.3573920104880823
20
-3.336039642954856
10
10.20584234025506
20
-0.26641234748915138
42
0.13565756356968958
0
CIRCLE
5
114
100
AcDbEntity
8
0
100
AcDbCircle
10
-28.249999999986528
20
15.249999999997003
30
0
40
1.5500000000000025
210
0
220
0
230
1
0
LWPOLYLINE
5
115
100
AcDbEntity
8
0
100
AcDbPolyline
90
4
70
1
43
0.0
10
-58.31597820568291
20
5.4999999999991189
10
-52.315978205683969
20
5.4999999999959215
42
-0.99999999999999989
10
-52.315978205683969
20
3.4999999999977405
10
-58.31597820568291
20
3.499999999997101
42
-0.99999999999999989
0
LWPOLYLINE
5
116
100
AcDbEntity
8
0
100
AcDbPolyline
90
4
70
1
43
0.0
10
-42.405173797779973
20
14.499999999997115
42
0.99999999999999989
10
-42.405173797779973
20
16.499999999997002
10
-62.405173797780115
20
16.499999999997069
42
0.99999999999999989
10
-62.405173797779845
20
14.499999999996904
0
CIRCLE
5
117
100
AcDbEntity
8
0
100
AcDbCircle
10
-28.249999999986528
20
-15.250000000002117
30
0
40
1.5500000000000025
210
0
220
0
230
1
0
CIRCLE
5
118
100
AcDbEntity
8
0
100
AcDbCircle
10
-57.059156116160494
20
9.9999999999975113
30
0
40
1.5500000000000025
210
0
220
0
230
1
0
LWPOLYLINE
5
119
100
AcDbEntity
8
0
100
AcDbPolyline
90
4
70
1
43
0.0
10
65.118582272545495
20
7.7499999999970726
42
-0.99999999999999989
10
65.118582272545495
20
4.749999999997101
10
58.618582272545439
20
4.749999999997101
42
-0.99999999999999989
10
58.618582272545439
20
7.7499999999970726
0
LWPOLYLINE
5
120
100
AcDbEntity
8
0
100
AcDbPolyline
90
8
70
1
43
0.0
10
53.518530570888466
20
14.249999999997057
10
44.518530570888693
20
14.249999999996978
42
-0.99999999999999989
10
43.518530570888451
20
14.249999999996845
10
43.518530570888608
20
16.24999999999709
42
-0.99999999999999989
10
44.518530570888551
20
16.249999999996806
10
53.518530570888601
20
16.249999999997094
42
-0.99999999999999989
10
54.518530570888544
20
16.249999999996806
10
54.518530570888693
20
14.249999999997057
42
-0.99999999999999989
0
CIRCLE
5
121
100
AcDbEntity
8
0
100
AcDbCircle
10
-9.9999999999852189
20
-10.000000000002489
30
0
40
1.5500000000000005
210
0
220
0
230
1
0
CIRCLE
5
122
100
AcDbEntity
8
0
100
AcDbCircle
10
-57.059156116160494
20
-10.000000000002556
30
0
40
1.5500000000000025
210
0
220
0
230
1
0
CIRCLE
5
123
100
AcDbEntity
8
0
100
AcDbCircle
10
-70.560347595575053
20
-15.250000000002117
30
0
40
1.5500000000000025
210
0
220
0
230
1
0
CIRCLE
5
124
100
AcDbEntity
8
0
100
AcDbCircle
10
28.250000000014381
20
15.249999999997003
30
0
40
1.5500000000000025
210
0
220
0
230
1
0
CIRCLE
5
125
100
AcDbEntity
8
0
100
AcDbCircle
10
37.059156116189904
20
9.9999999999975113
30
0
40
1.0000000000000009
210
0
220
0
230
1
0
LWPOLYLINE
5
126
100
AcDbEntity
8
0
100
AcDbPolyline
90
4
70
1
43
0.0
10
-62.405173797780122
20
-16.50000000000226
10
-42.405173797779973
20
-16.500000000002117
42
0.99999999999999989
10
-42.405173797779973
20
-14.500000000002231
10
-62.405173797780122
20
-14.500000000002089
42
0.99999999999999989
0
CIRCLE
5
127
100
AcDbEntity
8
0
100
AcDbCircle
10
28.250000000014381
20
-15.250000000002117
30
0
40
1.5500000000000025
210
0
220
0
230
1
0
CIRCLE
5
128
100
AcDbEntity
8
0
100
AcDbCircle
10
-37.059156116160644
20
-10.000000000002556
30
0
40
1.5500000000000025
210
0
220
0
230
1
0
CIRCLE
5
129
100
AcDbEntity
8
0
100
AcDbCircle
10
-9.9999999999852189
20
9.9999999999975113
30
0
40
1.5500000000000005
210
0
220
0
230
1
0
CIRCLE
5
130
100
AcDbEntity
8
0
100
AcDbCircle
10
10.00000000001492
20
-10.000000000002489
30
0
40
1.5500000000000005
210
0
220
0
230
1
0
CIRCLE
5
131
100
AcDbEntity
8
0
100
AcDbCircle
10
57.059156116189911
20
9.9999999999975113
30
0
40
0.99999999999999645
210
0
220
0
230
1
0
CIRCLE
5
132
100
AcDbEntity
8
0
100
AcDbCircle
10
69.949844099983821
20
15.249999999998137
30
0
40
1.5500000000000025
210
0
220
0
230
1
0
CIRCLE
5
133
100
AcDbEntity
8
0
100
AcDbCircle
10
69.949844099983821
20
-15.250000000003114
30
0
40
1.5500000000000025
210
0
220
0
230
1
0
LWPOLYLINE
5
134
100
AcDbEntity
8
0
100
AcDbPolyline
90
4
70
1
43
0.0
10
-52.315978205683969
20
-3.5000000000027143
42
-0.99999999999999989
10
-52.315978205683969
20
-5.5000000000008953
10
-58.31597820568291
20
-5.5000000000040217
42
-0.99999999999999989
10
-58.31597820568291
20
-3.5000000000022879
0
CIRCLE
5
135
100
AcDbEntity
8
0
100
AcDbCircle
10
-37.059156116160644
20
9.9999999999975113
30
0
40
1.5500000000000025
210
0
220
0
230
1
0
CIRCLE
5
136
100
AcDbEntity
8
0
100
AcDbCircle
10
-70.560347595575053
20
15.249999999997003
30
0
40
1.5500000000000025
210
0
220
0
230
1
0
CIRCLE
5
137
100
AcDbEntity
8
0
100
AcDbCircle
10
10.00000000001492
20
9.9999999999975113
30
0
40
1.5500000000000005
210
0
220
0
230
1
0
CIRCLE
5
138
100
AcDbEntity
8
0
100
AcDbCircle
10
68.738647363826928
20
89.68816824335191
30
0
40
3.5000000000000009
210
0
220
-0
230
1
0
LWPOLYLINE
5
139
100
AcDbEntity
8
0
100
AcDbPolyline
90
4
70
1
43
0.0
10
71.546700147046081
20
81.466823444696303
42
1.4675987714115977
10
68.699538100732539
20
81.000582779181357
42
-0.18949546288665736
10
68.75866144991663
20
80.639538004885935
42
1.4675987714093857
10
71.60582349623057
20
81.105778670401008
42
-0.18949546288675501
0
LWPOLYLINE
5
140
100
AcDbEntity
8
0
100
AcDbPolyline
90
4
70
1
43
0.0
10
77.787277602292818
20
89.708182329441556
42
1.4675987714094489
10
77.321036936777716
20
92.55534437575534
42
-0.18949546288673225
10
76.959992162482578
20
92.496221026571021
42
1.4675987714115866
10
77.426232827997396
20
89.649058980257351
42
-0.18949546288681782
0
LWPOLYLINE
5
141
100
AcDbEntity
8
0
100
AcDbPolyline
90
4
70
1
43
0.0
10
65.871471231423556
20
98.270557816302571
42
-0.18949546288660193
10
65.930594580607803
20
97.909513042007291
42
1.4675987714116214
10
68.777756626921189
20
98.375753707522392
42
-0.18949546288683483
10
68.71863327773741
20
98.736798481817544
42
1.4675987714093546
0
LWPOLYLINE
5
142
100
AcDbEntity
8
0
100
AcDbPolyline
90
4
70
1
43
0.0
10
59.690017125361308
20
89.668154157262137
42
1.467598771409391
10
60.156257790876253
20
86.820992110948112
42
-0.18949546288681207
10
60.517302565171349
20
86.880115460132686
42
1.46759877141169
10
60.051061899656617
20
89.727277506445958
42
-0.18949546288688243
0
CIRCLE
5
143
100
AcDbEntity
8
0
100
AcDbCircle
10
15.249833634115451
20
15.250607266405183
30
0
40
1.4750000000000001
210
0
220
-0
230
1
0
LWPOLYLINE
5
144
100
AcDbEntity
8
0
100
AcDbPolyline
90
4
70
1
43
0.0
10
-76.961004995398071
20
-92.496566139014334
42
0.18949546288682645
10
-77.322049769693166
20
-92.55568948819888
42
-1.4675987714093754
10
-77.788290435208182
20
-89.708527441885124
42
0.18949546288676122
10
-77.42724566091276
20
-89.649404092700991
42
-1.4675987714115875
0
LWPOLYLINE
5
145
100
AcDbEntity
8
0
100
AcDbPolyline
90
4
70
1
43
0.0
10
-68.700550933648245
20
-81.000927891624571
42
-1.4675987714117047
10
-71.547712979961616
20
-81.467168557139686
42
0.18949546288689428
10
-71.606836329145935
20
-81.106123782844406
42
-1.4675987714093699
10
-68.759674282832052
20
-80.63988311732939
42
0.18949546288676616
0
LWPOLYLINE
5
146
100
AcDbEntity
8
0
100
AcDbPolyline
90
4
70
1
43
0.0
10
-68.719646110652491
20
-98.737143594260885
42
0.18949546288668026
10
-68.77876945983671
20
-98.376098819965819
42
-1.4675987714116356
10
-65.931607413523082
20
-97.909858154450603
42
0.18949546288687141
10
-65.872484064338735
20
-98.270902928746025
42
-1.4675987714093759
0
LWPOLYLINE
5
147
100
AcDbEntity
8
0
100
AcDbPolyline
90
4
70
1
43
0.0
10
-60.51831539808687
20
-86.880460572575643
42
0.18949546288665944
10
-60.157270623791547
20
-86.821337223391424
42
-1.4675987714093863
10
-59.69102995827663
20
-89.668499269705478
42
0.18949546288669877
10
-60.052074732571938
20
-89.727622618889342
42
-1.4675987714116185
0
CIRCLE
5
148
100
AcDbEntity
8
0
100
AcDbCircle
10
-68.739660196742506
20
-89.688513355795152
30
0
40
3.5000000000000009
210
0
220
-0
230
1
0
CIRCLE
5
149
100
AcDbEntity
8
0
100
AcDbCircle
10
-15.250846467031671
20
-15.250952378847506
30
0
40
1.4750000000000001
210
0
220
-0
230
1
0
LWPOLYLINE
5
150
100
AcDbEntity
8
0
100
AcDbPolyline
90
4
70
1
43
0.0
10
-68.777796034315145
20
98.36725532305833
42
0.18949546288681896
10
-68.718672685131352
20
98.728300097353554
42
-1.4675987714093552
10
-65.871510638817568
20
98.262059431838594
42
0.18949546288676675
10
-65.930633988001773
20
97.9010146575432
42
-1.4675987714116214
0
LWPOLYLINE
5
151
100
AcDbEntity
8
0
100
AcDbPolyline
90
4
70
1
43
0.0
10
-60.517341972565347
20
86.87161707566851
42
-1.4675987714116792
10
-60.051101307050601
20
89.718779121981967
42
0.18949546288689326
10
-59.690056532755293
20
89.659655772797919
42
-1.4675987714094028
10
-60.156297198270252
20
86.812493726484092
42
0.18949546288676605
0
LWPOLYLINE
5
152
100
AcDbEntity
8
0
100
AcDbPolyline
90
4
70
1
43
0.0
10
-77.3210763441718
20
92.546845991291221
42
0.18949546288670327
10
-76.960031569876662
20
92.48772264210713
42
-1.4675987714116185
10
-77.42627223539138
20
89.640560595793403
42
0.189495462886899
10
-77.787317009686916
20
89.699683944977437
42
-1.4675987714093293
0
LWPOLYLINE
5
153
100
AcDbEntity
8
0
100
AcDbPolyline
90
4
70
1
43
0.0
10
-68.699577508126538
20
80.992084394717253
42
0.18949546288664967
10
-68.758700857310671
20
80.631039620421888
42
-1.4675987714093608
10
-71.605862903624711
20
81.097280285937003
42
0.18949546288671429
10
-71.546739554440194
20
81.458325060232198
42
-1.4675987714115923
0
CIRCLE
5
154
100
AcDbEntity
8
0
100
AcDbCircle
10
-68.738686771220969
20
89.679669858887848
30
0
40
3.5000000000000009
210
-0
220
0
230
1
0
CIRCLE
5
155
100
AcDbEntity
8
0
100
AcDbCircle
10
-15.249873041509563
20
15.242108881940933
30
0
40
1.4750000000000001
210
-0
220
0
230
1
0
LWPOLYLINE
5
156
100
AcDbEntity
8
0
100
AcDbPolyline
90
4
70
1
43
0.0
10
71.541632117227408
20
-81.465391491117856
42
-0.18949546288689706
10
71.60075546641184
20
-81.104346716822619
42
1.4675987714094214
10
68.753593420097843
20
-80.638106051307574
42
-0.1894954628868169
10
68.694470070914036
20
-80.999150825602754
42
1.467598771411615
0
LWPOLYLINE
5
157
100
AcDbEntity
8
0
100
AcDbPolyline
90
4
70
1
43
0.0
10
76.954924132663933
20
-92.494789072992603
42
-0.18949546288682989
10
77.315968906959029
20
-92.553912422177035
42
1.467598771409323
10
77.782209572473988
20
-89.706750375863237
42
-0.18949546288659894
10
77.42116479817868
20
-89.647627026679174
42
1.4675987714116427
0
CIRCLE
5
158
100
AcDbEntity
8
0
100
AcDbCircle
10
15.244765604297505
20
-15.249175312825756
30
0
40
1.4750000000000001
210
-0
220
0
230
1
0
LWPOLYLINE
5
159
100
AcDbEntity
8
0
100
AcDbPolyline
90
4
70
1
43
0.0
10
68.713565247918467
20
-98.735366528239098
42
-0.1894954628867388
10
68.77268859710243
20
-98.374321753943889
42
1.4675987714116223
10
65.925526550788874
20
-97.90808108842883
42
-0.1894954628868262
10
65.866403201604484
20
-98.269125862724167
42
1.4675987714094161
0
CIRCLE
5
160
100
AcDbEntity
8
0
100
AcDbCircle
10
68.733579334008397
20
-89.68673628977335
30
0
40
3.5000000000000009
210
-0
220
0
230
1
0
LWPOLYLINE
5
161
100
AcDbEntity
8
0
100
AcDbPolyline
90
4
70
1
43
0.0
10
59.684949095542422
20
-89.666722203683662
42
-0.18949546288675753
10
60.045993869837844
20
-89.725845552867426
42
1.4675987714116123
10
60.512234535352754
20
-86.878683506553941
42
-0.18949546288666105
10
60.151189761057388
20
-86.819560157369636
42
1.4675987714093306
0
ENDSEC
0
SECTION
2
OBJECTS
0
DICTIONARY
5
C
100
AcDbDictionary
3
ACAD_GROUP
350
D
3
ACAD_MLINESTYLE
350
17
0
DICTIONARY
5
D
100
AcDbDictionary
0
DICTIONARY
5
1A
330
C
100
AcDbDictionary
0
DICTIONARY
5
17
100
AcDbDictionary
0
ENDSEC
0
EOF
