0
SECTION
2
HEADER
9
$INSUNITS
70
4
9
$ACADVER
1
AC1014
9
$HANDSEED
5
FFFF
0
ENDSEC
0
SECTION
2
TABLES
0
TABLE
2
VPORT
5
8
100
AcDbSymbolTable
0
ENDTAB
0
TABLE
2
LTYPE
5
5
100
AcDbSymbolTable
0
LTYPE
5
14
100
AcDbSymbolTableRecord
100
AcDbLinetypeTableRecord
2
BYBLOCK
70
0
0
LTYPE
5
15
100
AcDbSymbolTableRecord
100
AcDbLinetypeTableRecord
2
BYLAYER
70
0
0
ENDTAB
0
TABLE
2
LAYER
5
2
100
AcDbSymbolTable
70
2
0
LAYER
5
50
100
AcDbSymbolTableRecord
100
AcDbLayerTableRecord
2
0
70
0
6
CONTINUOUS
0
ENDTAB
0
TABLE
2
STYLE
5
3
100
AcDbSymbolTable
70
1
0
STYLE
5
11
100
AcDbSymbolTableRecord
100
AcDbTextStyleTableRecord
2
STANDARD
70
0
0
ENDTAB
0
TABLE
2
VIEW
5
6
100
AcDbSymbolTable
70
0
0
ENDTAB
0
TABLE
2
UCS
5
7
100
AcDbSymbolTable
70
0
0
ENDTAB
0
TABLE
2
APPID
5
9
100
AcDbSymbolTable
70
2
0
APPID
5
12
100
AcDbSymbolTableRecord
100
AcDbRegAppTableRecord
2
ACAD
70
0
0
ENDTAB
0
TABLE
2
DIMSTYLE
5
A
100
AcDbSymbolTable
70
1
0
ENDTAB
0
TABLE
2
BLOCK_RECORD
5
1
100
AcDbSymbolTable
70
1
0
BLOCK_RECORD
5
1F
100
AcDbSymbolTableRecord
100
AcDbBlockTableRecord
2
*MODEL_SPACE
0
BLOCK_RECORD
5
1B
100
AcDbSymbolTableRecord
100
AcDbBlockTableRecord
2
*PAPER_SPACE
0
ENDTAB
0
ENDSEC
0
SECTION
2
BLOCKS
0
BLOCK
5
20
100
AcDbEntity
100
AcDbBlockBegin
2
*MODEL_SPACE
0
ENDBLK
5
21
100
AcDbEntity
100
AcDbBlockEnd
0
BLOCK
5
1C
100
AcDbEntity
100
AcDbBlockBegin
2
*PAPER_SPACE
0
ENDBLK
5
1D
100
AcDbEntity
100
AcDbBlockEnd
0
ENDSEC
0
SECTION
2
ENTITIES
0
ARC
5
100
100
AcDbEntity
8
0
100
AcDbCircle
10
19.748884593078767
20
-1.9193674427597784e-12
30
0
40
0.99999999999995204
210
0
220
0
230
1
100
AcDbArc
50
180
51
180.00418711417743
0
ARC
5
101
100
AcDbEntity
8
0
100
AcDbCircle
10
-4.9773518639995018e-11
20
-2.8960167597347208e-12
30
0
40
72.931305976935263
210
0
220
0
230
-1
100
AcDbArc
50
180
51
182.96716120325632
0
ARC
5
102
100
AcDbEntity
8
0
100
AcDbCircle
10
-56.200000016387435
20
-2.9135027723725671e-12
30
0
40
1.4999999999999862
210
-0
220
-0
230
-1
100
AcDbArc
50
-90
51
0
0
ARC
5
103
100
AcDbEntity
8
0
100
AcDbCircle
10
-43.447819284730109
20
-1.9291339359295279e-12
30
0
40
1.0000000000010978
210
0
220
0
230
1
100
AcDbArc
50
180
51
195.96444641904517
0
ARC
5
104
100
AcDbEntity
8
0
100
AcDbCircle
10
-9.2422949902544431
20
-1.9215011526352299e-12
30
0
40
0.99999999999810796
210
0
220
0
230
1
100
AcDbArc
50
180
51
195.45089161672587
0
ARC
5
105
100
AcDbEntity
8
0
100
AcDbCircle
10
3.4798618574791367
20
-1.9187429423084268e-12
30
0
40
0.99999999999996703
210
0
220
0
230
1
100
AcDbArc
50
180
51
238.0065006541779
0
ARC
5
106
100
AcDbEntity
8
0
100
AcDbCircle
10
-65.309156116160096
20
-2.4871771309165069e-12
30
0
40
3.2499999999996021
210
-0
220
0
230
1
100
AcDbArc
50
270
51
360
0
ARC
5
107
100
AcDbEntity
8
0
100
AcDbCircle
10
-3.4801736575116138
20
-1.8473417240372214e-12
30
0
40
0.99999999999996658
210
-0
220
0
230
1
100
AcDbArc
50
301.99349934582204
51
360
0
ARC
5
108
100
AcDbEntity
8
0
100
AcDbCircle
10
-65.118582272545495
20
-2.9130864387383326e-12
30
0
40
1.4999999999999858
210
0
220
0
230
-1
100
AcDbArc
50
180
51
270
0
ARC
5
109
100
AcDbEntity
8
0
100
AcDbCircle
10
38.441344536330888
20
-1.9195062206378566e-12
30
0
40
0.99999999999995204
210
0
220
0
230
1
100
AcDbArc
50
180
51
238.00650065418463
0
ARC
5
110
100
AcDbEntity
8
0
100
AcDbCircle
10
43.447507484698214
20
-1.9716693555604792e-12
30
0
40
1.0000000000003519
210
-0
220
0
230
1
100
AcDbArc
50
-15.964446419056701
51
15.964446419058481
0
ARC
5
111
100
AcDbEntity
8
0
100
AcDbCircle
10
-38.44165633636451
20
-1.9224899450165367e-12
30
0
40
1.0000000000000577
210
-0
220
0
230
1
100
AcDbArc
50
301.99349934579999
51
360
0
ARC
5
112
100
AcDbEntity
8
0
100
AcDbCircle
10
9.2419831902219833
20
-1.9137642859323734e-12
30
0
40
0.99999999999807232
210
-0
220
0
230
1
100
AcDbArc
50
344.54910838327339
51
360
0
LINE
5
113
100
AcDbEntity
8
0
100
AcDbLine
10
9.3573920104880823
20
-3.336039642954856
30
0
11
10.20584234025506
21
-0.2664123474891511
31
0
0
LWPOLYLINE
5
114
100
AcDbEntity
8
0
100
AcDbPolyline
90
8
70
1
43
0.0
10
43.518530570888608
20
-14.250000000002034
10
43.518530570888451
20
-16.250000000002217
42
0.99999999999999989
10
44.518530570888693
20
-16.250000000002213
10
53.518530570888487
20
-16.250000000002196
42
0.99999999999999989
10
54.518530570888693
20
-16.250000000002206
10
54.518530570888537
20
-14.250000000002403
42
0.99999999999999989
10
53.518530570888608
20
-14.250000000002244
10
44.518530570888551
20
-14.250000000002315
42
0.99999999999999989
0
LWPOLYLINE
5
115
100
AcDbEntity
8
0
100
AcDbPolyline
90
4
70
1
43
0.0
10
62.734600004860006
20
-82.912494135511821
42
0.18949546288666877
10
63.017712276711244
20
-83.144218845009931
42
-1.4675987714116105
10
61.190354992941209
20
-85.376813173050849
42
0.18949546288678193
10
60.907242721089659
20
-85.145088463553193
42
-1.4675987714093395
0
ARC
5
116
100
AcDbEntity
8
0
100
AcDbCircle
10
42.688485179483706
20
-2.6532380450424902
30
0
40
1.0000000000000808
210
0
220
0
230
1
100
AcDbArc
50
238.00650065418205
51
344.03555358093632
0
CIRCLE
5
117
100
AcDbEntity
8
0
100
AcDbCircle
10
10.00000000001492
20
-10.000000000002489
30
0
40
1.5500000000000005
210
0
220
0
230
1
0
ARC
5
118
100
AcDbEntity
8
0
100
AcDbCircle
10
8.3935328604529502
20
-3.0696272954673285
30
0
40
1.0000000000001317
210
0
220
0
230
1
100
AcDbArc
50
238.00650065419345
51
344.54910838328874
0
CIRCLE
5
119
100
AcDbEntity
8
0
100
AcDbCircle
10
57.059156116189911
20
-10.000000000002556
30
0
40
0.99999999999999645
210
0
220
0
230
1
0
LWPOLYLINE
5
120
100
AcDbEntity
8
0
100
AcDbPolyline
90
4
70
1
43
0.0
10
-72.375747434646456
20
-81.798358710284106
42
-0.18949546288677169
10
-72.581915501330613
20
-81.496127626931838
42
1.4675987714093699
10
-74.965278815247302
20
-83.121947847628519
42
-0.18949546288692259
10
-74.759110748562648
20
-83.424178930980659
42
1.467598771411706
0
ARC
5
121
100
AcDbEntity
8
0
100
AcDbCircle
10
-98.347544820962952
20
-55.465093098463697
30
0
40
28.048485050148617
210
-0
220
0
230
1
100
AcDbArc
50
310.23039014510829
51
310.82291027123813
0
CIRCLE
5
122
100
AcDbEntity
8
0
100
AcDbCircle
10
28.250000000014381
20
-15.250000000002117
30
0
40
1.5500000000000025
210
0
220
0
230
1
0
CIRCLE
5
123
100
AcDbEntity
8
0
100
AcDbCircle
10
15.244765604297507
20
-15.249175312825756
30
0
40
1.4750000000000001
210
0
220
0
230
1
0
LINE
5
124
100
AcDbEntity
8
0
100
AcDbLine
10
48.666292127704637
20
-19.250000000012598
30
0
11
36.924916056032295
21
-19.250000000024322
31
0
0
LWPOLYLINE
5
125
100
AcDbEntity
8
0
100
AcDbPolyline
90
4
70
1
43
0.0
10
-42.405173797779973
20
-16.500000000002114
10
-62.405173797780122
20
-16.50000000000226
42
-0.99999999999999989
10
-62.405173797780122
20
-14.500000000002089
10
-42.405173797779973
20
-14.500000000002233
42
-0.99999999999999989
0
CIRCLE
5
126
100
AcDbEntity
8
0
100
AcDbCircle
10
-9.9999999999852189
20
-10.000000000002489
30
0
40
1.5500000000000005
210
0
220
0
230
1
0
ARC
5
127
100
AcDbEntity
8
0
100
AcDbCircle
10
-57.317989131161511
20
-84.056861137473575
30
0
40
4.5000000000000151
210
0
220
0
230
-1
100
AcDbArc
50
19.826742660546802
51
27.011658190710381
0
LWPOLYLINE
5
128
100
AcDbEntity
8
0
100
AcDbPolyline
90
4
70
1
43
0.0
10
58.618582272545439
20
-7.7500000000021174
10
65.11858227254578
20
-7.7500000000021174
42
0.99999999999999989
10
65.118582272545495
20
-4.7500000000021458
10
58.618582272545154
20
-4.7500000000021458
42
0.99999999999999989
0
LINE
5
129
100
AcDbEntity
8
0
100
AcDbLine
10
-36.930073115565335
20
-19.250000000024631
30
0
11
-46.134380118343344
21
-19.250000000018467
31
0
0
LINE
5
130
100
AcDbEntity
8
0
100
AcDbLine
10
2.9500388143438272
20
-0.84810821418379645
30
0
11
7.8637098173177833
21
-3.9177355096494897
31
0
0
ARC
5
131
100
AcDbEntity
8
0
100
AcDbCircle
10
-28.685735489445872
20
-68.627828619223209
30
0
40
28.048485050147999
210
0
220
0
230
1
100
AcDbArc
50
191.87074078461316
51
208.36960985489395
0
ARC
5
132
100
AcDbEntity
8
0
100
AcDbCircle
10
-68.008958697883401
20
-89.506922579449807
30
0
40
16.499999999912085
210
0
220
0
230
-1
100
AcDbArc
50
27.011658190696966
51
32.493767888414311
0
LINE
5
133
100
AcDbEntity
8
0
100
AcDbLine
10
-44.409251836024637
20
-0.2750408139068517
30
0
11
-43.65022953081025
21
-2.9282788589450388
31
0
0
CIRCLE
5
134
100
AcDbEntity
8
0
100
AcDbCircle
10
-15.250846467031671
20
-15.250952378847506
30
0
40
1.4750000000000001
210
0
220
0
230
1
0
LINE
5
135
100
AcDbEntity
8
0
100
AcDbLine
10
65.118582272545495
20
-1.5000000000028992
30
0
11
56.200000016387435
21
-1.5000000000028999
31
0
0
LWPOLYLINE
5
136
100
AcDbEntity
8
0
100
AcDbPolyline
90
4
70
1
43
0.0
10
-62.17309468857578
20
-83.46289473729
42
-0.18949546288669936
10
-62.475325771927984
20
-83.669062803974612
42
1.4675987714116205
10
-60.849505551231474
20
-86.052426117891173
42
-0.18949546288666244
10
-60.547274467879141
20
-85.846258051206874
42
1.4675987714093892
0
LINE
5
137
100
AcDbEntity
8
0
100
AcDbLine
10
-7.8640216173502342
20
-3.9177355096494635
30
0
11
-2.9503506143763047
21
-0.84810821418372506
31
0
0
LINE
5
138
100
AcDbEntity
8
0
100
AcDbLine
10
-10.206154140287557
20
-0.2664123474891561
30
0
11
-9.3577038105205155
21
-3.336039642954844
31
0
0
LINE
5
139
100
AcDbEntity
8
0
100
AcDbLine
10
-42.158973936381855
20
-3.5013462592222626
30
0
11
-37.911833293229478
21
-0.84810821418408233
31
0
0
ARC
5
140
100
AcDbEntity
8
0
100
AcDbCircle
10
68.002125163431074
20
-89.572538740679803
30
0
40
16.499999999915964
210
0
220
0
230
-1
100
AcDbArc
50
152.50623211158731
51
157.98834180930336
0
ARC
5
141
100
AcDbEntity
8
0
100
AcDbCircle
10
-39.2265341004032
20
-78.605965278526469
30
0
40
9.9999999999960902
210
0
220
0
230
1
100
AcDbArc
50
144.3000000000014
51
150.37187171433527
0
ARC
5
142
100
AcDbEntity
8
0
100
AcDbCircle
10
-42.688796979516766
20
-2.6532380450399367
30
0
40
1.0000000000001394
210
0
220
0
230
1
100
AcDbArc
50
195.96444641907152
51
301.99349934578908
0
ARC
5
143
100
AcDbEntity
8
0
100
AcDbCircle
10
69.384030034291641
20
-89.311425104603117
30
0
40
16.499999999904627
210
0
220
0
230
-1
100
AcDbArc
50
43.411658190707456
51
48.893767888427355
0
CIRCLE
5
144
100
AcDbEntity
8
0
100
AcDbCircle
10
-37.059156116160644
20
-10.000000000002556
30
0
40
1.5500000000000025
210
0
220
0
230
1
0
LINE
5
145
100
AcDbEntity
8
0
100
AcDbLine
10
73.745035473036623
20
-4.8231443630672199
30
0
11
74.447874058673563
21
-4.8846347715987548
31
0
0
ARC
5
146
100
AcDbEntity
8
0
100
AcDbCircle
10
-8.3938446604855681
20
-3.0696272954677566
30
0
40
0.99999999999983535
210
0
220
0
230
1
100
AcDbArc
50
195.45089161668977
51
301.99349934582841
0
ARC
5
147
100
AcDbEntity
8
0
100
AcDbCircle
10
-81.066819278920335
20
-60.673196145295933
30
0
40
9.9999999999892069
210
-0
220
0
230
1
100
AcDbArc
50
343.22812828565401
51
349.29999999999069
0
LWPOLYLINE
5
148
100
AcDbEntity
8
0
100
AcDbPolyline
90
4
70
1
43
0.0
10
-76.932045925605578
20
-93.530768660383629
42
1.4675987714093861
10
-75.30622570490894
20
-95.914131974300176
42
-0.18949546288685853
10
-75.003994621557084
20
-95.70796390761538
42
1.4675987714115959
10
-76.629814842253211
20
-93.32460059369906
42
-0.18949546288678493
0
ARC
5
149
100
AcDbEntity
8
0
100
AcDbCircle
10
30.667631523823534
20
-65.21526425919545
30
0
40
28.048485050148145
210
-0
220
0
230
1
100
AcDbArc
50
326.63039014510633
51
327.74206896679254
0
ARC
5
150
100
AcDbEntity
8
0
100
AcDbCircle
10
2.3891999489933369e-12
20
1.7763568394002505e-13
30
0
40
75.592899016680263
210
0
220
-0
230
-1
100
AcDbArc
50
184.52183447311054
51
188.83976285415457
0
ARC
5
151
100
AcDbEntity
8
0
100
AcDbCircle
10
78.101248253611772
20
-81.064601078685257
30
0
40
4.500000000000318
210
0
220
0
230
-1
100
AcDbArc
50
35.843517146916334
51
43.411658190707513
0
LWPOLYLINE
5
152
100
AcDbEntity
8
0
100
AcDbPolyline
90
4
70
1
43
0.0
10
-65.103572958838484
20
-97.578668001306269
42
-0.18949546288667715
10
-64.897404892153986
20
-97.880899084658282
42
1.4675987714093772
10
-62.514041578237361
20
-96.255078863961785
42
-0.18949546288687372
10
-62.720209644922122
20
-95.952847780609517
42
1.4675987714116452
0
LWPOLYLINE
5
153
100
AcDbEntity
8
0
100
AcDbPolyline
90
4
70
1
43
0.0
10
64.191931507788112
20
-97.513072902691789
42
-1.4675987714093941
10
61.959337179746782
20
-95.685715618921492
42
0.18949546288680805
10
62.191061889244907
20
-95.402603347070311
42
-1.467598771411627
10
64.423656217285853
20
-97.229960630840509
42
0.18949546288675109
0
CIRCLE
5
154
100
AcDbEntity
8
0
100
AcDbCircle
10
69.949844099983821
20
-15.250000000003116
30
0
40
1.5500000000000025
210
0
220
0
230
1
0
ARC
5
155
100
AcDbEntity
8
0
100
AcDbCircle
10
-74.360718315920408
20
-5.8808294696966747
30
0
40
1.00000000000663
210
0
220
0
230
-1
100
AcDbArc
50
95.000000000282867
51
184.52183447331541
0
LWPOLYLINE
5
156
100
AcDbEntity
8
0
100
AcDbPolyline
90
4
70
1
43
0.0
10
-58.31597820568291
20
-3.5000000000022879
42
0.99999999999999989
10
-58.31597820568291
20
-5.5000000000040217
10
-52.315978205683969
20
-5.5000000000008953
42
0.99999999999999989
10
-52.315978205683969
20
-3.5000000000027143
0
CIRCLE
5
157
100
AcDbEntity
8
0
100
AcDbCircle
10
37.059156116189904
20
-10.000000000002556
30
0
40
1.0000000000000009
210
0
220
0
230
1
0
CIRCLE
5
158
100
AcDbEntity
8
0
100
AcDbCircle
10
-68.739660196742491
20
-89.688513355795152
30
0
40
3.5000000000000009
210
0
220
-0
230
1
0
LINE
5
159
100
AcDbEntity
8
0
100
AcDbLine
10
-71.560155900016156
20
-3.2500000000019469
30
0
11
-65.309156116160096
21
-3.250000000002089
31
0
0
ARC
5
160
100
AcDbEntity
8
0
100
AcDbCircle
10
73.832191215783709
20
-3.8269496649773025
30
0
40
0.99999999999812816
210
0
220
0
230
1
100
AcDbArc
50
177.03283879657261
51
265.00000000002353
0
LWPOLYLINE
5
161
100
AcDbEntity
8
0
100
AcDbPolyline
90
4
70
1
43
0.0
10
75.507821488269585
20
-83.687756960625066
42
0.189495462886899
10
75.276096778771404
20
-83.970869232476161
42
-1.4675987714116014
10
73.043502450730671
20
-82.143511948706006
42
0.18949546288681943
10
73.275227160228283
20
-81.860399676854669
42
-1.467598771409415
0
LINE
5
162
100
AcDbEntity
8
0
100
AcDbLine
10
37.911521493195686
20
-0.84810821418384685
30
0
11
42.158662136348397
21
-3.5013462592245026
31
0
0
ARC
5
163
100
AcDbEntity
8
0
100
AcDbCircle
10
56.876833810603138
20
-85.07499582118767
30
0
40
4.5000000000000435
210
0
220
0
230
-1
100
AcDbArc
50
157.98834180929043
51
165.55648285310355
0
LINE
5
164
100
AcDbEntity
8
0
100
AcDbLine
10
43.649917730777176
20
-2.9282788589474458
30
0
11
44.408940035991975
21
-0.2750408139068839
31
0
0
CIRCLE
5
165
100
AcDbEntity
8
0
100
AcDbCircle
10
-57.059156116160494
20
-10.000000000002556
30
0
40
1.5500000000000025
210
0
220
0
230
1
0
LWPOLYLINE
5
166
100
AcDbEntity
8
0
100
AcDbPolyline
90
8
70
1
43
0.0
10
-72.275522092268289
20
-6.3687134012592148
10
-72.745368402661242
20
-6.5397234729220148
42
0.41421356237313661
10
-73.044204641391417
20
-7.1805798549777933
10
-72.189154283077073
20
-9.5298114069426862
42
0.41421356237305329
10
-71.5482979010214
20
-9.8286476456728256
10
-71.078451590628475
20
-9.6576375740098523
42
0.41421356237308599
10
-70.7796153518983
20
-9.0167811919541663
10
-71.634665710212346
20
-6.6675496399892733
42
0.4142135623732815
0
LWPOLYLINE
5
167
100
AcDbEntity
8
0
100
AcDbPolyline
90
4
70
1
43
0.0
10
74.732558663156496
20
-96.460978444034694
42
0.1894954628868071
10
74.449446391305543
20
-96.229253734536556
42
-1.4675987714116416
10
76.276803675075385
20
-93.996659406495681
42
0.18949546288661356
10
76.559915946926694
20
-94.228384115993506
42
-1.4675987714093353
0
CIRCLE
5
168
100
AcDbEntity
8
0
100
AcDbCircle
10
-28.249999999986528
20
-15.250000000002117
30
0
40
1.5500000000000025
210
0
220
0
230
1
0
ARC
5
169
100
AcDbEntity
8
0
100
AcDbCircle
10
71.560155900016142
20
-6.2500000000019273
30
0
40
2.9999999999999805
210
0
220
0
230
-1
100
AcDbArc
50
0
51
89.99999999999973
0
LINE
5
170
100
AcDbEntity
8
0
100
AcDbLine
10
-73.634391444592325
20
-9.7437690404883064
30
0
11
-74.240526790181463
21
-8.0784258653489651
31
0
0
CIRCLE
5
171
100
AcDbEntity
8
0
100
AcDbCircle
10
68.733579334008397
20
-89.68673628977335
30
0
40
3.5000000000000009
210
-0
220
0
230
1
0
ARC
5
172
100
AcDbEntity
8
0
100
AcDbCircle
10
73.060155900016355
20
-12.507274500695754
30
0
40
1.4999999999997726
210
-0
220
0
230
-1
100
AcDbArc
50
0
51
48.604102155635644
0
CIRCLE
5
173
100
AcDbEntity
8
0
100
AcDbCircle
10
-70.560347595575053
20
-15.250000000002117
30
0
40
1.5500000000000025
210
0
220
0
230
1
0
ARC
5
174
100
AcDbEntity
8
0
100
AcDbCircle
10
69.260155900014283
20
-6.2657191057226029
30
0
40
5.3000000000018588
210
-0
220
0
230
-1
100
AcDbArc
50
340.00000000000369
51
360
0
ARC
5
175
100
AcDbEntity
8
0
100
AcDbCircle
10
-75.043930375771581
20
-10.256799255476851
30
0
40
1.5000000000003963
210
-0
220
0
230
1
100
AcDbArc
50
-48.604102155613823
51
19.999999999996348
0
LINE
5
176
100
AcDbEntity
8
0
100
AcDbLine
10
-74.560155900016142
20
-15.210839717505849
30
0
11
-74.560155900016127
21
-12.507274500695829
31
0
0
ARC
5
177
100
AcDbEntity
8
0
100
AcDbCircle
10
70.560347595575209
20
-15.250000000002119
30
0
40
3.9999999999999956
210
0
220
0
230
-1
100
AcDbArc
50
0.13185083484893073
51
0.56093868871063246
0
LINE
5
178
100
AcDbEntity
8
0
100
AcDbLine
10
-74.560155900016142
20
-6.2657191057228108
30
0
11
-74.560155900016127
21
-6.2500000000019202
31
0
0
LINE
5
179
100
AcDbEntity
8
0
100
AcDbLine
10
10.241983190220056
20
-2.4043267377038546e-12
30
0
11
10.242024346685882
21
-2.4043614321733742e-12
31
3.2491899833548924e-16
0
ARC
5
180
100
AcDbEntity
8
0
100
AcDbCircle
10
68.733579334008397
20
-89.68673628977335
30
0
40
17.207470545324629
210
0
220
0
230
1
100
AcDbArc
50
146.48534283216154
51
317.8867095284233
0
LINE
5
181
100
AcDbEntity
8
0
100
AcDbLine
10
-74.864013860399055
20
-65.470163781511232
30
0
11
-74.560155900016142
21
-15.210839717505849
31
0
0
LINE
5
182
100
AcDbEntity
8
0
100
AcDbLine
10
-56.134380118380264
20
-74.397527193919046
30
0
11
-56.134380118350023
21
-29.250000000011759
31
0
0
ARC
5
183
100
AcDbEntity
8
0
100
AcDbCircle
10
-46.134380118350066
20
-29.250000000018431
30
0
40
9.9999999999999662
210
0
220
-0
230
1
100
AcDbArc
50
89.999999999961503
51
180
0
ARC
5
184
100
AcDbEntity
8
0
100
AcDbCircle
10
-68.739660196742491
20
-89.688513355795152
30
0
40
17.204905165735504
210
0
220
0
230
1
100
AcDbArc
50
-229.00999262945925
51
27.735764728524181
0
CIRCLE
5
185
100
AcDbEntity
8
0
100
AcDbCircle
10
68.753660776240451
20
-89.668379374090094
30
0
40
3.5000000000000004
210
0
220
-0
230
1
0
LINE
5
186
100
AcDbEntity
8
0
100
AcDbLine
10
79.978276701983816
20
-73.33695748326312
30
0
11
76.043410436208887
21
-28.361230260737642
31
0
0
ARC
5
187
100
AcDbEntity
8
0
100
AcDbCircle
10
68.753660776240451
20
-89.668379374090094
30
0
40
17.204905165735212
210
0
220
0
230
1
100
AcDbArc
50
-215.87462489672296
51
32.73576472852433
0
ARC
5
188
100
AcDbEntity
8
0
100
AcDbCircle
10
36.275675479987271
20
-58.155686738782109
30
0
40
28.048485050148347
210
-0
220
0
230
1
100
AcDbArc
50
315.2303901451084
51
315.55484640714997
0
ARC
5
189
100
AcDbEntity
8
0
100
AcDbCircle
10
74.31634892369118
20
-82.649903715213213
30
0
40
0.50000000000379108
210
-0
220
0
230
1
100
AcDbArc
50
287.83987225074549
51
330.76012774927307
0
ARC
5
190
100
AcDbEntity
8
0
100
AcDbCircle
10
60.774145253476128
20
-93.734068986196888
30
0
40
0.50000000000371492
210
-0
220
0
230
1
100
AcDbArc
50
287.83987225071809
51
330.76012774927221
0
LINE
5
191
100
AcDbEntity
8
0
100
AcDbLine
10
60.541814997937493
20
-66.075605682174498
30
0
11
57.478177015423874
21
-28.438685366478804
31
0
0
ARC
5
192
100
AcDbEntity
8
0
100
AcDbCircle
10
63.190972628789702
20
-96.686855032965951
30
0
40
0.50000000000311684
210
0
220
0
230
1
100
AcDbArc
50
107.83987225077767
51
150.76012774934591
0
ARC
5
193
100
AcDbEntity
8
0
100
AcDbCircle
10
-58.676072908366251
20
-81.893199847219037
30
0
40
4.5000000000002514
210
0
220
0
230
-1
100
AcDbArc
50
30.843517146916486
51
38.411658190707513
0
ARC
5
194
100
AcDbEntity
8
0
100
AcDbCircle
10
75.77213643511692
20
-95.231067521540851
30
0
40
0.50000000000346312
210
0
220
0
230
1
100
AcDbArc
50
197.83987225073739
51
240.76012774930774
0
ARC
5
195
100
AcDbEntity
8
0
100
AcDbCircle
10
76.73317629900491
20
-85.602689761983569
30
0
40
0.50000000000371991
210
0
220
0
230
1
100
AcDbArc
50
107.83987225069342
51
150.76012774921821
0
ARC
5
196
100
AcDbEntity
8
0
100
AcDbCircle
10
64.687971164133785
20
-81.688863851326033
30
0
40
0.50000000000329803
210
0
220
0
230
1
100
AcDbArc
50
197.83987225066971
51
240.7601277492148
0
ARC
5
197
100
AcDbEntity
8
0
100
AcDbCircle
10
61.735185117364551
20
-84.105691226639024
30
0
40
0.50000000000311884
210
0
220
-0
230
1
100
AcDbArc
50
17.839872250724099
51
60.760127749315636
0
ARC
5
198
100
AcDbEntity
8
0
100
AcDbCircle
10
72.819350388347573
20
-97.647894896854638
30
0
40
0.50000000000348432
210
0
220
-0
230
1
100
AcDbArc
50
17.839872250751817
51
60.760127749273451
0
ARC
5
199
100
AcDbEntity
8
0
100
AcDbCircle
10
106.81960858642472
20
-65.196907343512407
30
0
40
28.048485050147711
210
0
220
0
230
1
100
AcDbArc
50
196.87074078461319
51
213.36960985489398
0
LINE
5
200
100
AcDbEntity
8
0
100
AcDbLine
10
76.043410436208887
20
-28.361230260737642
30
0
11
74.662713574577381
21
-12.579792917909538
31
0
0
ARC
5
201
100
AcDbEntity
8
0
100
AcDbCircle
10
78.647492366944107
20
-12.23116994692143
30
0
40
3.9999999999995235
210
0
220
0
230
1
100
AcDbArc
50
171.16023714584628
51
184.99999999996425
0
LINE
5
202
100
AcDbEntity
8
0
100
AcDbLine
10
48.666292127704637
20
-19.250000000012598
30
0
11
47.51114292470205
21
-19.250000000013753
31
0
0
ARC
5
203
100
AcDbEntity
8
0
100
AcDbCircle
10
47.511142924712018
20
-29.250000000013756
30
0
40
10.000000000000007
210
0
220
-0
230
1
100
AcDbArc
50
4.653605238210238
51
90.000000000057128
0
LINE
5
204
100
AcDbEntity
8
0
100
AcDbLine
10
60.541814997937493
20
-66.075605682174498
30
0
11
60.773320888771742
21
-68.919665200849735
31
0
0
ARC
5
205
100
AcDbEntity
8
0
100
AcDbCircle
10
68.753660776240451
20
-89.668379374090094
30
0
40
17.231027739356705
210
0
220
0
230
1
100
AcDbArc
50
-229.74377646602414
51
35.219195279331473
0
ARC
5
206
100
AcDbEntity
8
0
100
AcDbCircle
10
51.80299020713111
20
-69.649848371031197
30
0
40
8.9999999999999787
210
-0
220
0
230
1
100
AcDbArc
50
-49.743776466024165
51
4.6536052382103152
0
ARC
5
207
100
AcDbEntity
8
0
100
AcDbCircle
10
-89.863739729930998
20
-65.379478397378023
30
0
40
15.000000000000037
210
-0
220
0
230
1
100
AcDbArc
50
310.99000737054081
51
359.65360523821107
0
ARC
5
208
100
AcDbEntity
8
0
100
AcDbCircle
10
9.2422538311182763
20
-7.307893174157698e-05
30
-3.2491899833521525e-16
40
0.99999999999810019
210
2.1974003272644028e-30
220
-1.2246467991473532e-16
230
-1
100
AcDbArc
50
0
51
15.450891616725892
0
LWPOLYLINE
5
209
100
AcDbEntity
8
0
100
AcDbPolyline
90
4
70
1
43
0.0
10
62.734641163995917
20
82.912421056577813
42
-0.18949546288667013
10
63.017753435847148
20
83.144145766075951
42
1.4675987714116032
10
61.19039615207712
20
85.376740094116869
42
-0.18949546288677674
10
60.907283880225563
20
85.145015384619228
42
1.4675987714093219
0
ARC
5
210
100
AcDbEntity
8
0
100
AcDbCircle
10
65.118623431681371
20
-7.307893074681715e-05
30
3.2492794792305694e-16
40
1.4999999999999769
210
-9.2291367294017525e-31
220
1.2246467991473532e-16
230
1
100
AcDbArc
50
0
51
90
0
ARC
5
211
100
AcDbEntity
8
0
100
AcDbCircle
10
-36.275716639123267
20
58.155613659848235
30
-3.2491899833519992e-16
40
28.048485050148226
210
-2.8349688781380107e-31
220
-1.2246467991473567e-16
230
-1
100
AcDbArc
50
135.23039014510843
51
135.55484640714997
0
ARC
5
212
100
AcDbEntity
8
0
100
AcDbCircle
10
-47.511184083847972
20
29.249926921079989
30
-3.2491899833517478e-16
40
9.9999999999999645
210
-1.0785207688568518e-32
220
-1.2246467991473505e-16
230
-1
100
AcDbArc
50
184.65360523821039
51
270.00000000005718
0
LINE
5
213
100
AcDbEntity
8
0
100
AcDbLine
10
76.04345159534472
20
28.361157181803875
30
-3.1483210379459258e-15
11
74.662754733713228
21
12.579719838975834
31
-1.2156523651620308e-15
0
ARC
5
214
100
AcDbEntity
8
0
100
AcDbCircle
10
74.360759475056255
20
5.8807563907630112
30
-3.9526595071613084e-16
40
1.0000000000066267
210
1.7410406697260608e-31
220
1.224646799147329e-16
230
1
100
AcDbArc
50
-84.999999999717119
51
4.5218344733157361
0
LINE
5
215
100
AcDbEntity
8
0
100
AcDbLine
10
65.118623431681371
20
1.499926921069239
30
1.4123092805095659e-16
11
56.200041175523346
21
1.499926921069239
31
1.4123092805095659e-16
0
CIRCLE
5
216
100
AcDbEntity
8
0
100
AcDbCircle
10
-69.949885259119682
20
15.249926921069417
30
-3.2491899833519203e-16
40
1.5500000000000025
210
0
220
-1.2246467991473532e-16
230
-1
0
LWPOLYLINE
5
217
100
AcDbEntity
8
0
100
AcDbPolyline
90
8
70
1
43
0.0
10
53.518571730024533
20
14.24992692106855
10
44.518571730024505
20
14.249926921068621
42
-0.99999999999999989
10
43.518571730024576
20
14.249926921068337
10
43.518571730024405
20
16.249926921068472
42
-0.99999999999999989
10
44.518571730024654
20
16.249926921068472
10
53.518571730024405
20
16.249926921068472
42
-0.99999999999999989
10
54.518571730024618
20
16.249926921068472
10
54.518571730024455
20
14.249926921068692
42
-0.99999999999999989
0
LINE
5
218
100
AcDbEntity
8
0
100
AcDbLine
10
43.649958889913137
20
2.9282057800137906
30
-3.3682785238671128e-17
11
44.408981195127936
21
0.2749677349732238
31
2.9124516268481969e-16
0
LINE
5
219
100
AcDbEntity
8
0
100
AcDbLine
10
73.74507663217247
20
4.8230712841335688
30
-2.6573688268217286e-16
11
74.44791521780941
21
4.8845616926650948
31
-2.7326728588081556e-16
0
LINE
5
220
100
AcDbEntity
8
0
100
AcDbLine
10
48.666333286840583
20
19.249926921078853
30
-2.0325171404367811e-15
11
36.924957215168284
21
19.249926921090577
31
-2.0325171404382168e-15
0
LWPOLYLINE
5
221
100
AcDbEntity
8
0
100
AcDbPolyline
90
4
70
1
43
0.0
10
58.618623431681058
20
4.7499269210685213
42
-0.99999999999999989
10
58.618623431681343
20
7.7499269210684218
10
65.118623431681655
20
7.7499269210684574
42
-0.99999999999999989
10
65.118623431681371
20
4.7499269210684858
0
ARC
5
222
100
AcDbEntity
8
0
100
AcDbCircle
10
3.4801324983754678
20
-7.3078931812631254e-05
30
-3.2491899833519297e-16
40
0.99999999999996525
210
-3.5128962185623182e-31
220
-1.2246467991473589e-16
230
-1
100
AcDbArc
50
121.99349934582197
51
180
0
ARC
5
223
100
AcDbEntity
8
0
100
AcDbCircle
10
-42.688526338619674
20
2.6531649661088252
30
-3.2491899833521491e-16
40
1.000000000000087
210
-5.1152699322924984e-31
220
-1.2246467991473451e-16
230
-1
100
AcDbArc
50
58.006500654182247
51
164.03555358093564
0
LINE
5
224
100
AcDbEntity
8
0
100
AcDbLine
10
48.666333286840583
20
19.249926921078853
30
-2.0325171404367811e-15
11
47.511184083837996
21
19.249926921080025
31
-2.032517140436927e-15
0
ARC
5
225
100
AcDbEntity
8
0
100
AcDbCircle
10
8.3938035013494066
20
3.0695542165340939
30
-3.249189983352123e-16
40
0.9999999999998298
210
1.7564481092811591e-30
220
-1.2246467991473584e-16
230
-1
100
AcDbArc
50
15.450891616690054
51
121.99349934582867
0
LWPOLYLINE
5
226
100
AcDbEntity
8
0
100
AcDbPolyline
90
8
70
1
43
0.0
10
-71.548256741884998
20
9.8285745667391211
10
-71.07841043149206
20
9.6575644950761532
42
-0.41421356237308526
10
-70.779574192761885
20
9.0167081130204707
10
-71.634624551075959
20
6.6674765610556088
42
-0.41421356237329948
10
-72.275480933131874
20
6.3686403223255539
10
-72.745327243524841
20
6.5396503939883255
42
-0.41421356237311729
10
-73.044163482255001
20
7.1805067760440977
10
-72.189113123940643
20
9.5297383280089996
42
-0.41421356237304263
0
CIRCLE
5
227
100
AcDbEntity
8
0
100
AcDbCircle
10
9.9999588408490485
20
9.9999269210687913
30
-3.2491899833519105e-16
40
1.5500000000000005
210
0
220
-1.2246467991473532e-16
230
-1
0
LWPOLYLINE
5
228
100
AcDbEntity
8
0
100
AcDbPolyline
90
4
70
1
43
0.0
10
-72.375706275510026
20
81.798285631350154
42
0.18949546288676894
10
-72.58187434219424
20
81.496054547997886
42
-1.4675987714093546
10
-74.965237656110887
20
83.121874768694539
42
0.18949546288693489
10
-74.759069589426218
20
83.424105852046679
42
-1.4675987714116903
0
CIRCLE
5
229
100
AcDbEntity
8
0
100
AcDbCircle
10
-68.753701935376327
20
89.668306295156071
30
-3.2491899833515752e-16
40
3.5000000000000004
210
0
220
-1.2246467991473532e-16
230
-1
0
ARC
5
230
100
AcDbEntity
8
0
100
AcDbCircle
10
-106.81964974556044
20
65.196834264578484
30
-3.2491899833517231e-16
40
28.048485050147598
210
1.0477058897466563e-31
220
-1.2246467991473559e-16
230
-1
100
AcDbArc
50
16.870740784613186
51
33.369609854894065
0
LINE
5
231
100
AcDbEntity
8
0
100
AcDbLine
10
-73.634350285455895
20
9.7436959615546215
30
-8.6833960878309399e-16
11
-74.240485631045047
21
8.078352786415266
31
-6.6439388989146598e-16
0
LWPOLYLINE
5
232
100
AcDbEntity
8
0
100
AcDbPolyline
90
4
70
1
43
0.0
10
-75.003953462420668
20
95.707890828681371
42
-1.4675987714115941
10
-76.629773683116795
20
93.324527514765037
42
0.18949546288678859
10
-76.932004766469163
20
93.530695581449606
42
-1.4675987714093577
10
-75.306184545772481
20
95.914058895366182
42
0.18949546288686933
0
LINE
5
233
100
AcDbEntity
8
0
100
AcDbLine
10
-44.409210676888335
20
0.27496773497318827
30
2.9124516268482363e-16
11
-43.650188371673948
21
2.9282057800113748
31
-3.3682785238375305e-17
0
ARC
5
234
100
AcDbEntity
8
0
100
AcDbCircle
10
-72.819391547483434
20
97.647821817920629
30
-3.2491899833475717e-16
40
0.50000000000349221
210
9.1212042166179476e-30
220
-1.2246467991473816e-16
230
-1
100
AcDbArc
50
197.8398722507585
51
240.76012774927489
0
ARC
5
235
100
AcDbEntity
8
0
100
AcDbCircle
10
98.347503661826451
20
55.465020019529838
30
-3.2491899833516837e-16
40
28.0484850501485
210
-1.2325951644078307e-31
220
-1.2246467991473557e-16
230
-1
100
AcDbArc
50
130.23039014510837
51
130.82291027123816
0
ARC
5
236
100
AcDbEntity
8
0
100
AcDbCircle
10
39.226492941266919
20
78.605892199592503
30
-3.2491899833516935e-16
40
9.9999999999960423
210
-4.6838616247497567e-31
220
-1.2246467991473569e-16
230
-1
100
AcDbArc
50
324.30000000000149
51
330.37187171433533
0
ARC
5
237
100
AcDbEntity
8
0
100
AcDbCircle
10
-64.68801232326966
20
81.688790772392096
30
-3.2491899833499186e-16
40
0.50000000000329259
210
4.3695498578257607e-30
220
-1.2246467991473673e-16
230
-1
100
AcDbArc
50
17.839872250666623
51
60.760127749215471
0
ARC
5
238
100
AcDbEntity
8
0
100
AcDbCircle
10
75.043889216635165
20
10.256726176543154
30
-3.2491899833526278e-16
40
1.5000000000003868
210
1.1709654061874392e-30
220
-1.2246467991473399e-16
230
-1
100
AcDbArc
50
131.39589784438633
51
199.99999999999574
0
ARC
5
239
100
AcDbEntity
8
0
100
AcDbCircle
10
-69.383988875155225
20
89.311352025669123
30
-1.0612567140240666e-14
40
16.499999999904592
210
2.5884498452564445e-31
220
1.2246467991473557e-16
230
1
100
AcDbArc
50
223.41165819070744
51
228.89376788842733
0
ARC
5
240
100
AcDbEntity
8
0
100
AcDbCircle
10
-69.260114740877881
20
6.2656460267889358
30
-4.4240133679454418e-16
40
5.3000000000018312
210
-1.0846837446788911e-30
220
1.2246467991473579e-16
230
1
100
AcDbArc
50
160.00000000000395
51
180
0
ARC
5
241
100
AcDbEntity
8
0
100
AcDbCircle
10
-68.002084004294673
20
89.572465661745809
30
-1.0644544338104164e-14
40
16.499999999915911
210
1.1093356479670476e-31
220
1.2246467991473552e-16
230
1
100
AcDbArc
50
332.50623211158722
51
337.98834180930334
0
ARC
5
242
100
AcDbEntity
8
0
100
AcDbCircle
10
-78.101207094475328
20
81.064527999751292
30
-9.6026224755934823e-15
40
4.500000000000302
210
-7.1490519535654195e-31
220
1.2246467991473485e-16
230
1
100
AcDbArc
50
215.84351714691604
51
223.41165819070747
0
ARC
5
243
100
AcDbEntity
8
0
100
AcDbCircle
10
81.066778119783891
20
60.673123066362074
30
-3.2491899833516344e-16
40
9.9999999999891678
210
-1.9721522630525291e-31
220
-1.2246467991473552e-16
230
-1
100
AcDbArc
50
163.22812828565412
51
169.29999999999092
0
CIRCLE
5
244
100
AcDbEntity
8
0
100
AcDbCircle
10
-68.733620493144258
20
89.686663210839356
30
-3.2491899833515358e-16
40
3.5000000000000009
210
0
220
-1.2246467991473532e-16
230
-1
0
ARC
5
245
100
AcDbEntity
8
0
100
AcDbCircle
10
-43.447548643834182
20
-7.3078931706049843e-05
30
-3.2491899833519834e-16
40
1.0000000000003482
210
-6.7792734042430702e-32
220
-1.2246467991473532e-16
230
-1
100
AcDbArc
50
164.03555358094223
51
195.96444641905802
0
ARC
5
246
100
AcDbEntity
8
0
100
AcDbCircle
10
-9.2420243493580809
20
-7.307893174157698e-05
30
-3.2491899833519677e-16
40
0.99999999999806677
210
-1.9721522630525291e-31
220
-1.2246467991473539e-16
230
-1
100
AcDbArc
50
164.54910838327362
51
180
0
ARC
5
247
100
AcDbEntity
8
0
100
AcDbCircle
10
43.447778125593814
20
-7.307893174157698e-05
30
-3.2491899833525514e-16
40
1.0000000000010889
210
1.3843705094087355e-30
220
-1.2246467991473532e-16
230
-1
100
AcDbArc
50
0
51
15.964446419045693
0
ARC
5
248
100
AcDbEntity
8
0
100
AcDbCircle
10
-3.4799030166152556
20
-7.307893174157698e-05
30
-3.2491899833518735e-16
40
0.99999999999996203
210
2.197400327260311e-30
220
-1.2246467991473532e-16
230
-1
100
AcDbArc
50
0
51
58.006500654178048
0
ARC
5
249
100
AcDbEntity
8
0
100
AcDbCircle
10
56.200041175523346
20
-7.307893074681715e-05
30
3.2492794792305694e-16
40
1.4999999999999858
210
0
220
1.2246467991473473e-16
230
1
100
AcDbArc
50
90
51
180
0
ARC
5
250
100
AcDbEntity
8
0
100
AcDbCircle
10
38.441615177228229
20
-7.307893174157698e-05
30
-3.2491899833516728e-16
40
1.0000000000000568
210
-7.2106817117858093e-31
220
-1.2246467991473648e-16
230
-1
100
AcDbArc
50
121.99349934579965
51
180
0
ARC
5
251
100
AcDbEntity
8
0
100
AcDbCircle
10
58.676114067502169
20
81.893126768285057
30
-9.7040965585597134e-15
40
4.5000000000002514
210
-2.4035605705952703e-31
220
1.2246467991473522e-16
230
1
100
AcDbArc
50
210.84351714691644
51
218.4116581907071
0
ARC
5
252
100
AcDbEntity
8
0
100
AcDbCircle
10
-60.774186412612032
20
93.733995907262866
30
-3.2491899833560323e-16
40
0.50000000000373179
210
-1.288061946806183e-30
220
-1.2246467991473931e-16
230
-1
100
AcDbArc
50
107.83987225071711
51
150.76012774927364
0
LINE
5
253
100
AcDbEntity
8
0
100
AcDbLine
10
60.54185615707339
20
66.075532603240561
30
-7.7669999521163531e-15
11
57.478218174559778
21
28.43861228754502
31
-3.157806552678278e-15
0
LINE
5
254
100
AcDbEntity
8
0
100
AcDbLine
10
-56.134338959243912
20
74.397454114985095
30
-8.7861414063276965e-15
11
-56.134338959213679
21
29.249926921078
31
-3.257163939584034e-15
0
LINE
5
255
100
AcDbEntity
8
0
100
AcDbLine
10
18.748884595749079
20
-7.3078931279724039e-05
30
0
11
18.748925752214877
21
-7.3078931279724202e-05
31
3.24927947923124e-16
0
ARC
5
256
100
AcDbEntity
8
0
100
AcDbCircle
10
-51.803031366267042
20
69.649775292097303
30
-3.2491899833516541e-16
40
8.9999999999999414
210
-2.4651903288156613e-32
220
-1.2246467991473537e-16
230
-1
100
AcDbArc
50
130.25622353397583
51
184.65360523821039
0
ARC
5
257
100
AcDbEntity
8
0
100
AcDbCircle
10
65.309114957023709
20
-7.3078931173142792e-05
30
-3.2491899833519356e-16
40
3.2499999999996021
210
0
220
-1.2246467991473461e-16
230
-1
100
AcDbArc
50
90
51
180
0
ARC
5
258
100
AcDbEntity
8
0
100
AcDbCircle
10
-30.667672682959548
20
65.215191180261513
30
-3.2491899833516541e-16
40
28.048485050148052
210
-1.848892746611746e-31
220
-1.2246467991473527e-16
230
-1
100
AcDbArc
50
146.63039014510636
51
147.74206896679257
0
LWPOLYLINE
5
259
100
AcDbEntity
8
0
100
AcDbPolyline
90
4
70
1
43
0.0
10
61.959378338882672
20
95.685642539987498
42
-0.18949546288683161
10
62.191103048380782
20
95.402530268136275
42
1.4675987714116521
10
64.423697376421728
20
97.229887551906472
42
-0.18949546288676192
10
64.191972666923959
20
97.512999823757724
42
1.4675987714093777
0
ARC
5
260
100
AcDbEntity
8
0
100
AcDbCircle
10
-61.735226276500448
20
84.105618147705059
30
-3.2491899833509244e-16
40
0.50000000000312972
210
1.8180778675015503e-30
220
-1.2246467991473591e-16
230
-1
100
AcDbArc
50
197.83987225072744
51
240.76012774931564
0
ARC
5
261
100
AcDbEntity
8
0
100
AcDbCircle
10
4.1159185906192164e-05
20
-7.307893074681715e-05
30
3.2492794792305694e-16
40
72.931305976934979
210
-1.8981841760081004e-32
220
1.2246467991473532e-16
230
1
100
AcDbArc
50
0
51
2.9671612032563361
0
ARC
5
262
100
AcDbEntity
8
0
100
AcDbCircle
10
-38.44138569546687
20
-7.307893174157698e-05
30
-3.2491899833524651e-16
40
0.99999999999995204
210
-1.3403892899199076e-30
220
-1.2246467991473532e-16
230
-1
100
AcDbArc
50
0
51
58.006500654184194
0
LWPOLYLINE
5
263
100
AcDbEntity
8
0
100
AcDbPolyline
90
4
70
1
43
0.0
10
73.27526831936413
20
81.860326597920704
42
1.4675987714094354
10
75.507862647405418
20
83.6876838816911
42
-0.18949546288690647
10
75.276137937907265
20
83.970796153542182
42
1.4675987714116074
10
73.043543609866518
20
82.143438869772055
42
-0.18949546288681343
0
LWPOLYLINE
5
264
100
AcDbEntity
8
0
100
AcDbPolyline
90
4
70
1
43
0.0
10
74.732599822292343
20
96.460905365100643
42
-0.18949546288679228
10
74.44948755044139
20
96.229180655602534
42
1.4675987714116387
10
76.276844834211218
20
93.996586327561658
42
-0.18949546288662011
10
76.559957106062555
20
94.22831103705947
42
1.4675987714093224
0
LWPOLYLINE
5
265
100
AcDbEntity
8
0
100
AcDbPolyline
90
4
70
1
43
0.0
10
-62.720168485785742
20
95.952774701675509
42
-1.4675987714116423
10
-65.103531799702097
20
97.578594922372218
42
0.18949546288667532
10
-64.897363733017642
20
97.880826005724231
42
-1.4675987714094061
10
-62.514000419101009
20
96.255005785027777
42
0.18949546288687635
0
CIRCLE
5
266
100
AcDbEntity
8
0
100
AcDbCircle
10
68.73961903760609
20
89.688440276861158
30
-3.2491899833515358e-16
40
3.5000000000000009
210
0
220
-1.2246467991473532e-16
230
-1
0
LINE
5
267
100
AcDbEntity
8
0
100
AcDbLine
10
-74.560114740879712
20
15.210766638572153
30
-1.5378626693152826e-15
11
-74.560114740879698
21
12.507201421762133
31
-1.206771420410032e-15
0
ARC
5
268
100
AcDbEntity
8
0
100
AcDbCircle
10
-70.560306436438779
20
15.249926921068422
30
-1.542658420776561e-15
40
3.9999999999999778
210
-1.0111132208032987e-33
220
1.2246467991473532e-16
230
1
100
AcDbArc
50
180.13185083484893
51
180.56093868871065
0
LINE
5
269
100
AcDbEntity
8
0
100
AcDbLine
10
-74.863972701262625
20
65.470090702577323
30
-7.6928547035446584e-15
11
-74.560114740879712
21
15.210766638572153
31
-1.5378626693152826e-15
0
ARC
5
270
100
AcDbEntity
8
0
100
AcDbCircle
10
-63.191013787925598
20
96.686781954031943
30
-3.2491899833566239e-16
40
0.5000000000031507
210
-1.3435287292045352e-30
220
-1.2246467991473976e-16
230
-1
100
AcDbArc
50
287.83987225077618
51
330.7601277493402
0
LINE
5
271
100
AcDbEntity
8
0
100
AcDbLine
10
79.978317861119635
20
73.336884404329155
30
-8.6562590761849544e-15
11
76.04345159534472
21
28.361157181803875
31
-3.1483210379459258e-15
0
ARC
5
272
100
AcDbEntity
8
0
100
AcDbCircle
10
-78.647533526079926
20
12.231096867987716
30
-3.2491899833515703e-16
40
3.9999999999995044
210
4.1908235589866243e-31
220
-1.2246467991473525e-16
230
-1
100
AcDbArc
50
-8.839762854153669
51
4.9999999999643743
0
CIRCLE
5
273
100
AcDbEntity
8
0
100
AcDbCircle
10
-37.059197275325893
20
9.9999269210688624
30
-3.2491899833519179e-16
40
1.0000000000000009
210
0
220
-1.2246467991473532e-16
230
-1
0
ARC
5
274
100
AcDbEntity
8
0
100
AcDbCircle
10
-73.832232374919556
20
3.826876586043646
30
-3.2491899833516092e-16
40
0.9999999999981195
210
4.5220835094212289e-31
220
-1.224646799147353e-16
230
-1
100
AcDbArc
50
-2.9671612034275285
51
85.000000000023562
0
CIRCLE
5
275
100
AcDbEntity
8
0
100
AcDbCircle
10
-57.059197275325815
20
9.9999269210688624
30
-3.2491899833519179e-16
40
0.99999999999999645
210
0
220
-1.2246467991473532e-16
230
-1
0
ARC
5
276
100
AcDbEntity
8
0
100
AcDbCircle
10
4.1159133743473575e-05
20
-7.3078933837678051e-05
30
3.249279479234356e-16
40
75.592899016679965
210
2.9274135154685985e-32
220
1.2246467991473507e-16
230
1
100
AcDbArc
50
4.5218344731105544
51
8.8397628541545608
0
LINE
5
277
100
AcDbEntity
8
0
100
AcDbLine
10
37.911562652331668
20
0.84803513525017138
30
2.210646469403332e-16
11
42.158703295484365
21
3.5012731802908448
31
-1.0386330098316945e-16
0
CIRCLE
5
278
100
AcDbEntity
8
0
100
AcDbCircle
10
-28.250041159150399
20
15.249926921068422
30
-3.2491899833518833e-16
40
1.5500000000000025
210
0
220
-1.2246467991473532e-16
230
-1
0
CIRCLE
5
279
100
AcDbEntity
8
0
100
AcDbCircle
10
-10.000041159151012
20
9.9999269210687913
30
-3.2491899833519105e-16
40
1.5500000000000005
210
0
220
-1.2246467991473532e-16
230
-1
0
LINE
5
280
100
AcDbEntity
8
0
100
AcDbLine
10
2.9500799734799488
20
0.84803513525013585
30
2.2106464694033715e-16
11
7.8637509764538844
21
3.9176624307158292
31
-1.5485627725640428e-16
0
ARC
5
281
100
AcDbEntity
8
0
100
AcDbCircle
10
-8.3935740195890496
20
3.0695542165336676
30
-3.2491899833519233e-16
40
1.000000000000131
210
7.3339412282265924e-31
220
-1.2246467991473645e-16
230
-1
100
AcDbArc
50
58.006500654193559
51
164.54910838328931
0
CIRCLE
5
282
100
AcDbEntity
8
0
100
AcDbCircle
10
-15.24480676343358
20
15.24910223389206
30
-3.2491899833518809e-16
40
1.4750000000000001
210
0
220
-1.2246467991473532e-16
230
-1
0
LINE
5
283
100
AcDbEntity
8
0
100
AcDbLine
10
9.3574331696241781
20
3.3359665640211844
30
-8.3619079133919605e-17
11
10.205883499391152
21
0.26633926855549106
31
2.9230184506282183e-16
0
LWPOLYLINE
5
284
100
AcDbEntity
8
0
100
AcDbPolyline
90
4
70
1
43
0.0
10
-58.315937046546551
20
5.4999269210703616
10
-52.315937046547639
20
5.4999269210672352
42
-0.99999999999999989
10
-52.315937046547639
20
3.4999269210690542
10
-58.315937046546551
20
3.4999269210686279
42
-0.99999999999999989
0
ARC
5
285
100
AcDbEntity
8
0
100
AcDbCircle
10
-76.733217458140757
20
85.602616683049575
30
-3.249189983363349e-16
40
0.50000000000370315
210
-3.4882443152741616e-30
220
-1.2246467991474602e-16
230
-1
100
AcDbArc
50
287.83987225069387
51
330.76012774921958
0
LWPOLYLINE
5
286
100
AcDbEntity
8
0
100
AcDbPolyline
90
4
70
1
43
0.0
10
-42.405132638643678
20
14.499926921068571
42
0.99999999999999989
10
-42.405132638643678
20
16.499926921068386
10
-62.405132638643749
20
16.499926921068564
42
0.99999999999999989
10
-62.405132638643749
20
14.499926921068393
0
LWPOLYLINE
5
287
100
AcDbEntity
8
0
100
AcDbPolyline
90
4
70
1
43
0.0
10
-62.173053529439393
20
83.462821658356035
42
0.18949546288669153
10
-62.475284612791597
20
83.66898972504066
42
-1.4675987714116125
10
-60.849464392095086
20
86.052353038957236
42
0.18949546288666702
10
-60.54723330874279
20
85.84618497227288
42
-1.4675987714094045
0
ARC
5
288
100
AcDbEntity
8
0
100
AcDbCircle
10
-73.060114740879939
20
12.507201421762062
30
-1.2067714204100241e-15
40
1.4999999999997549
210
5.4201987856674475e-31
220
1.2246467991473532e-16
230
1
100
AcDbArc
50
180
51
228.6041021556359
0
ARC
5
289
100
AcDbEntity
8
0
100
AcDbCircle
10
28.685694330309623
20
68.627755540289314
30
-3.2491899833518316e-16
40
28.048485050147892
210
9.2444637330587299e-32
220
-1.2246467991473554e-16
230
-1
100
AcDbArc
50
11.870740784613117
51
28.369609854893902
0
ARC
5
290
100
AcDbEntity
8
0
100
AcDbCircle
10
-75.772177594252753
20
95.230994442606871
30
-3.2491899833520682e-16
40
0.50000000000345224
210
-1.2818989709841437e-30
220
-1.2246467991473493e-16
230
-1
100
AcDbArc
50
17.839872250734274
51
60.760127749308381
0
LINE
5
291
100
AcDbEntity
8
0
100
AcDbLine
10
-74.560114740879712
20
6.2656460267891489
30
-4.4240133679457179e-16
11
-74.560114740879698
21
6.2499269210682584
31
-4.4047630154391546e-16
0
CIRCLE
5
292
100
AcDbEntity
8
0
100
AcDbCircle
10
15.250805307895481
20
15.250879299913827
30
-3.2491899833518833e-16
40
1.4750000000000001
210
0
220
-1.2246467991473532e-16
230
-1
0
ARC
5
293
100
AcDbEntity
8
0
100
AcDbCircle
10
-56.876792651466779
20
85.074922742253676
30
-1.0093754184065777e-14
40
4.5000000000000204
210
-5.7931972727168054e-31
220
1.2246467991473557e-16
230
1
100
AcDbArc
50
337.98834180929055
51
345.55648285310349
0
ARC
5
294
100
AcDbEntity
8
0
100
AcDbCircle
10
-71.56011474087974
20
6.2499269210682584
30
-4.4047630154391546e-16
40
2.9999999999999538
210
0
220
1.2246467991473532e-16
230
1
100
AcDbArc
50
180
51
270
0
CIRCLE
5
295
100
AcDbEntity
8
0
100
AcDbCircle
10
28.249958840850287
20
15.249926921068422
30
-3.2491899833518833e-16
40
1.5500000000000025
210
0
220
-1.2246467991473532e-16
230
-1
0
ARC
5
296
100
AcDbEntity
8
0
100
AcDbCircle
10
-74.316390082827027
20
82.649830636279233
30
-3.2491899833485578e-16
40
0.5000000000037742
210
9.5526125241606863e-31
220
-1.2246467991473256e-16
230
-1
100
AcDbArc
50
107.83987225074603
51
150.76012774927452
0
LINE
5
297
100
AcDbEntity
8
0
100
AcDbLine
10
-36.930031956429055
20
19.249926921090896
30
-2.0325171404382563e-15
11
-46.134338959207035
21
19.24992692108475
31
-2.0325171404375029e-15
0
ARC
5
298
100
AcDbEntity
8
0
100
AcDbCircle
10
89.863698570794526
20
65.379405318444128
30
-3.2491899833515949e-16
40
14.999999999999966
210
-4.0675640425458412e-31
220
-1.2246467991473579e-16
230
-1
100
AcDbArc
50
130.99000737054084
51
179.65360523821005
0
LINE
5
299
100
AcDbEntity
8
0
100
AcDbLine
10
-10.206112981151383
20
0.26633926855549106
30
2.9230184506282183e-16
11
-9.3576626513843468
21
3.3359665640211844
31
-8.3619079133919605e-17
0
LINE
5
300
100
AcDbEntity
8
0
100
AcDbLine
10
-42.158932777245553
20
3.5012731802886066
30
-1.0386330098289729e-16
11
-37.911792134093204
21
0.84803513525042007
31
2.2106464694030165e-16
0
ARC
5
301
100
AcDbEntity
8
0
100
AcDbCircle
10
-68.753701935376327
20
89.668306295156071
30
-3.2491899833516935e-16
40
17.204905165735155
210
-2.4651903288156619e-32
220
-1.2246467991473544e-16
230
-1
100
AcDbArc
50
-35.874624896722914
51
212.7357647285242
0
ARC
5
302
100
AcDbEntity
8
0
100
AcDbCircle
10
46.13433895921375
20
29.249926921084679
30
-3.2491899833520041e-16
40
9.9999999999999289
210
4.7083628401313854e-43
220
-1.2246467991473601e-16
230
-1
100
AcDbArc
50
269.99999999996152
51
360
0
ARC
5
303
100
AcDbEntity
8
0
100
AcDbCircle
10
68.73961903760609
20
89.688440276861158
30
-3.2491899833515555e-16
40
17.204905165735447
210
-1.355854680848614e-31
220
-1.2246467991473544e-16
230
-1
100
AcDbArc
50
-49.009992629459227
51
207.7357647285242
0
LINE
5
304
100
AcDbEntity
8
0
100
AcDbLine
10
-62.059114957024121
20
-7.3078931173142792e-05
30
3.2492794792310822e-16
11
-62.059156116982109
21
-7.307893117314267e-05
31
0
0
ARC
5
305
100
AcDbEntity
8
0
100
AcDbCircle
10
68.008999857019276
20
89.506849500515827
30
-1.0636508675921908e-14
40
16.499999999912035
210
3.574525976782708e-31
220
1.2246467991473552e-16
230
1
100
AcDbArc
50
207.01165819069706
51
212.49376788841434
0
ARC
5
306
100
AcDbEntity
8
0
100
AcDbCircle
10
57.318030290297422
20
84.056788058539595
30
-9.9690686459146404e-15
40
4.4999999999999982
210
-6.7792734042430702e-32
220
1.224646799147353e-16
230
1
100
AcDbArc
50
199.8267426605469
51
207.01165819071051
0
LINE
5
307
100
AcDbEntity
8
0
100
AcDbLine
10
-71.56011474087974
20
3.2499269210682868
30
-7.3082261799714747e-17
11
-65.309114957023709
21
3.249926921068429
31
-7.3082261799730524e-17
0
ARC
5
308
100
AcDbEntity
8
0
100
AcDbCircle
10
42.688755820380479
20
2.6531649661062673
30
-3.2491899833511167e-16
40
1.0000000000001323
210
-1.8858706015439813e-30
220
-1.2246467991473478e-16
230
-1
100
AcDbArc
50
15.964446419072036
51
121.9934993457894
0
CIRCLE
5
309
100
AcDbEntity
8
0
100
AcDbCircle
10
37.05911495702437
20
9.9999269210688624
30
-3.2491899833519179e-16
40
1.5500000000000025
210
0
220
-1.2246467991473532e-16
230
-1
0
CIRCLE
5
310
100
AcDbEntity
8
0
100
AcDbCircle
10
57.05911495702415
20
9.9999269210688624
30
-3.2491899833519179e-16
40
1.5500000000000025
210
0
220
-1.2246467991473532e-16
230
-1
0
CIRCLE
5
311
100
AcDbEntity
8
0
100
AcDbCircle
10
70.560306436438637
20
15.249926921068422
30
-3.2491899833518833e-16
40
1.5500000000000025
210
0
220
-1.2246467991473532e-16
230
-1
0
LINE
5
312
100
AcDbEntity
8
0
100
AcDbLine
10
-7.8639804582140727
20
3.9176624307157937
30
-1.5485627725640034e-16
11
-2.950309455240161
21
0.8480351352500648
31
2.2106464694034504e-16
0
ARC
5
313
100
AcDbEntity
8
0
100
AcDbCircle
10
-68.753701935376327
20
89.668306295156071
30
-3.2491899833518316e-16
40
17.231027739356616
210
-1.2325951644078307e-31
220
-1.2246467991473552e-16
230
-1
100
AcDbArc
50
-49.743776466024059
51
215.21919527933144
0
ARC
5
314
100
AcDbEntity
8
0
100
AcDbCircle
10
-68.733620493144258
20
89.686663210839356
30
-3.249189983351733e-16
40
17.207470545324558
210
-1.4791141972893965e-31
220
-1.2246467991473544e-16
230
-1
100
AcDbArc
50
-33.51465716783855
51
137.88670952842341
0
LINE
5
315
100
AcDbEntity
8
0
100
AcDbLine
10
60.54185615707339
20
66.075532603240561
30
-7.7669999521163531e-15
11
60.773362047907639
21
68.919592121915827
31
-8.115296790729375e-15
0
LINE
5
316
100
AcDbEntity
8
0
100
AcDbLine
10
-37.441656336364453
20
-2.4591439995447217e-12
30
0
11
-37.441615179898434
21
-2.4592133884837608e-12
31
3.2491899833549545e-16
0
LINE
5
317
100
AcDbEntity
8
0
100
AcDbLine
10
-44.447819282060941
20
-7.3078931198558821e-05
30
0
11
-44.447778125594901
21
-7.3078931173142792e-05
31
3.2492794792310822e-16
0
LINE
5
318
100
AcDbEntity
8
0
100
AcDbLine
10
-37.441656339034715
20
-7.3078931208739317e-05
30
0
11
-37.441615177228172
21
-7.3078931208669928e-05
31
3.2492794792311216e-16
0
LINE
5
319
100
AcDbEntity
8
0
100
AcDbLine
10
-62.059156116160494
20
-2.4873761360213682e-12
30
0
11
-62.059114957845729
21
-2.487376082015158e-12
31
3.2491899833549821e-16
0
LINE
5
320
100
AcDbEntity
8
0
100
AcDbLine
10
-44.447819284731203
20
-2.4671931164732541e-12
30
0
11
-44.447778122924639
21
-2.4672285055097904e-12
31
3.2491899833549574e-16
0
LINE
5
321
100
AcDbEntity
8
0
100
AcDbLine
10
-10.242294990252551
20
-2.4278842825076197e-12
30
0
11
-10.242253828446113
21
-2.4278842316856428e-12
31
3.2491899833549012e-16
0
LINE
5
322
100
AcDbEntity
8
0
100
AcDbLine
10
2.4798618601494349
20
-7.3078931241026668e-05
30
0
11
2.4799030166152933
21
-7.3078931244197065e-05
31
3.2492794792311611e-16
0
LINE
5
323
100
AcDbEntity
8
0
100
AcDbLine
10
37.4413445390012
20
-7.3078931277853438e-05
30
0
11
37.44138569546692
21
-7.3078931279724202e-05
31
3.24927947923124e-16
0
LINE
5
324
100
AcDbEntity
8
0
100
AcDbLine
10
37.441344536330938
20
-2.3732404930143502e-12
30
0
11
37.441385698137182
21
-2.3732404506627029e-12
31
3.2491899833548692e-16
0
LINE
5
325
100
AcDbEntity
8
0
100
AcDbLine
10
44.4475074820283
20
-7.3078931285205928e-05
30
0
11
44.447548643834523
21
-7.3078931285205928e-05
31
3.249279479231236e-16
0
LINE
5
326
100
AcDbEntity
8
0
100
AcDbLine
10
44.447507484698569
20
-2.3651913760858179e-12
30
0
11
44.447548641164268
21
-2.3651913760858179e-12
31
3.2491899833548495e-16
0
LINE
5
327
100
AcDbEntity
8
0
100
AcDbLine
10
54.700000018167628
20
-7.3078931296020492e-05
30
0
11
54.70004117552336
21
-7.3078931315251339e-05
31
3.2492794792312794e-16
0
LINE
5
328
100
AcDbEntity
8
0
100
AcDbLine
10
54.700000016387449
20
-2.3534849532916221e-12
30
0
11
54.70004117730354
21
-2.3534849148866424e-12
31
3.2491899833548273e-16
0
LINE
5
329
100
AcDbEntity
8
0
100
AcDbLine
10
66.618582272545481
20
-2.3398175619914724e-12
30
0
11
66.618623429901177
21
-2.3398175046519375e-12
31
3.2491899833548243e-16
0
LINE
5
330
100
AcDbEntity
8
0
100
AcDbLine
10
66.618582270765302
20
-7.3078931308592494e-05
30
0
11
66.618623431681357
21
-7.3078931315251339e-05
31
3.2492794792312794e-16
0
LINE
5
331
100
AcDbEntity
8
0
100
AcDbLine
10
72.931305976948423
20
-7.3078931315251298e-05
30
0
11
72.931347136120891
21
-7.3078931315251339e-05
31
3.2492794792312794e-16
0
LINE
5
332
100
AcDbEntity
8
0
100
AcDbLine
10
-2.4806909484853121
20
-0.032160758036734391
30
0
11
-2.4806909484853117
21
0.033342312029445431
31
3.208357427648905e-16
0
LINE
5
333
100
AcDbEntity
8
0
100
AcDbLine
10
0.010832362940790957
20
24.249926921084715
30
-2.032517140437499e-15
11
11.995851666625617
21
24.249926921083208
31
3.2492794792341193e-16
0
LINE
5
334
100
AcDbEntity
8
0
100
AcDbLine
10
0.010832362940790957
20
24.249926921084715
30
-2.032517140437499e-15
11
-11.995769348347267
21
24.249926921086224
31
3.2492794792341193e-16
0
LINE
5
335
100
AcDbEntity
8
0
100
AcDbLine
10
-0.087199396333990514
20
-24.250000000018463
30
0
11
11.995999397415115
21
-24.25000000001695
31
3.2492794792341193e-16
0
LINE
5
336
100
AcDbEntity
8
0
100
AcDbLine
10
-0.087199396333990514
20
-24.250000000018463
30
0
11
-11.995917079136753
21
-24.250000000019966
31
3.2492794792341193e-16
0
LINE
5
337
100
AcDbEntity
8
0
100
AcDbLine
10
-44.681849833695978
20
-19.250000000024322
30
0
11
-19.01054229496139
21
-19.250000000021103
31
3.2492794792341193e-16
0
LINE
5
338
100
AcDbEntity
8
0
100
AcDbLine
10
19.010624613238491
20
-19.250000000016321
30
3.2492794792341193e-16
11
48.666292127704637
21
-19.250000000012598
31
0
0
LINE
5
339
100
AcDbEntity
8
0
100
AcDbLine
10
-44.681808674559676
20
19.249926921090577
30
-2.0325171404382168e-15
11
-19.010468295678859
21
19.249926921087216
31
3.2492794792341193e-16
0
LINE
5
340
100
AcDbEntity
8
0
100
AcDbLine
10
19.010550613955811
20
19.249926921082579
30
3.2492794792341193e-16
11
48.666333286840583
21
19.249926921078853
31
-2.0325171404367811e-15
0
ARC
5
341
100
AcDbEntity
8
0
100
AcDbCircle
10
4.1159136132673524e-05
20
-7.3078933660042367e-05
30
3.2492794792341193e-16
40
27.05479568824007
210
0
220
0
230
1
100
AcDbArc
50
116.32034108527729
51
134.64136341982442
0
ARC
5
342
100
AcDbEntity
8
0
100
AcDbCircle
10
4.1159136132673524e-05
20
-7.3078933660042367e-05
30
3.2492794792341193e-16
40
27.05479568824007
210
0
220
0
230
1
100
AcDbArc
50
225.35841632798733
51
243.6793098688054
0
ARC
5
343
100
AcDbEntity
8
0
100
AcDbCircle
10
4.1159136132673524e-05
20
-7.3078933660042367e-05
30
3.2492794792341193e-16
40
27.05479568824007
210
0
220
0
230
1
100
AcDbArc
50
296.32069013120901
51
314.64158367202708
0
ARC
5
344
100
AcDbEntity
8
0
100
AcDbCircle
10
4.1159136132673524e-05
20
-7.3078933660042367e-05
30
3.2492794792341193e-16
40
27.05479568824007
210
0
220
-0
230
1
100
AcDbArc
50
45.358636580161637
51
63.679658914708362
0
ENDSEC
0
SECTION
2
OBJECTS
0
DICTIONARY
5
C
100
AcDbDictionary
3
ACAD_GROUP
350
D
3
ACAD_MLINESTYLE
350
17
0
DICTIONARY
5
D
100
AcDbDictionary
0
DICTIONARY
5
1A
330
C
100
AcDbDictionary
0
DICTIONARY
5
17
100
AcDbDictionary
0
ENDSEC
0
EOF
